<svg width="49" height="49" viewBox="0 0 49 49" fill="none" xmlns="http://www.w3.org/2000/svg">
<path fill-rule="evenodd" clip-rule="evenodd" d="M44.9168 24.4997C44.9168 35.7697 35.7497 44.9163 24.5002 44.9163L23.929 44.9085C12.9227 44.6057 4.0835 35.5787 4.0835 24.4997C4.0835 13.2501 13.2302 4.08301 24.5002 4.08301C35.7497 4.08301 44.9168 13.2501 44.9168 24.4997ZM20.4577 16.333C19.8656 16.9455 19.8656 17.9051 20.4781 18.4972L26.501 24.4997L20.4781 30.5022C19.8656 31.0943 19.8656 32.0743 20.4577 32.6663C21.0702 33.2788 22.0297 33.2788 22.6218 32.6663L29.7472 25.5818C30.0331 25.2959 30.1964 24.908 30.1964 24.4997C30.1964 24.0913 30.0331 23.7034 29.7472 23.4176L22.6218 16.333C22.336 16.0268 21.9481 15.8838 21.5602 15.8838C21.1518 15.8838 20.7639 16.0268 20.4577 16.333Z" fill="#0D267D"/>
</svg>
