<svg width="49" height="49" viewBox="0 0 49 49" fill="none" xmlns="http://www.w3.org/2000/svg">
<path fill-rule="evenodd" clip-rule="evenodd" d="M4.08301 24.4997C4.08301 13.2297 13.2501 4.08301 24.4997 4.08301L25.0709 4.09086C36.0771 4.39367 44.9163 13.4207 44.9163 24.4997C44.9163 35.7493 35.7697 44.9163 24.4997 44.9163C13.2501 44.9163 4.08301 35.7493 4.08301 24.4997ZM28.5422 32.6663C29.1343 32.0538 29.1343 31.0943 28.5218 30.5022L22.4988 24.4997L28.5218 18.4972C29.1343 17.9051 29.1343 16.9251 28.5422 16.333C27.9297 15.7205 26.9701 15.7205 26.378 16.333L19.2526 23.4176C18.9668 23.7034 18.8034 24.0913 18.8034 24.4997C18.8034 24.908 18.9668 25.2959 19.2526 25.5818L26.378 32.6663C26.6638 32.9726 27.0518 33.1155 27.4397 33.1155C27.848 33.1155 28.2359 32.9726 28.5422 32.6663Z" fill="#0D267D"/>
</svg>
