<svg width="40" height="40" viewBox="0 0 40 40" fill="none" xmlns="http://www.w3.org/2000/svg">
<path fill-rule="evenodd" clip-rule="evenodd" d="M36.6673 19.9997C36.6673 29.1997 29.184 36.6663 20.0007 36.6663L19.5344 36.6599C10.5497 36.4127 3.33398 29.0437 3.33398 19.9997C3.33398 10.8163 10.8007 3.33301 20.0007 3.33301C29.184 3.33301 36.6673 10.8163 36.6673 19.9997ZM16.7007 13.333C16.2173 13.833 16.2173 14.6163 16.7173 15.0997L21.634 19.9997L16.7173 24.8997C16.2173 25.383 16.2173 26.183 16.7007 26.6663C17.2007 27.1663 17.984 27.1663 18.4673 26.6663L24.284 20.883C24.5173 20.6497 24.6507 20.333 24.6507 19.9997C24.6507 19.6663 24.5173 19.3497 24.284 19.1163L18.4673 13.333C18.234 13.083 17.9173 12.9663 17.6007 12.9663C17.2673 12.9663 16.9507 13.083 16.7007 13.333Z" fill="white"/>
</svg>
