<svg width="668" height="303" viewBox="0 0 668 303" fill="none" xmlns="http://www.w3.org/2000/svg">
<path d="M65 249.975H663" stroke="black"/>
<path d="M65 259.065V249.975" stroke="black"/>
<path d="M52.4733 286.141C51.5586 286.141 50.8306 285.884 50.2893 285.371C49.7573 284.857 49.4913 284.134 49.4913 283.201H50.9753C50.9753 283.667 51.0873 284.055 51.3113 284.363C51.5446 284.671 51.9226 284.825 52.4453 284.825C52.9586 284.825 53.3226 284.68 53.5373 284.391C53.7519 284.092 53.8593 283.714 53.8593 283.257V276.173H55.3433V283.257C55.3433 284.181 55.0866 284.895 54.5733 285.399C54.0599 285.893 53.3599 286.141 52.4733 286.141ZM59.622 286.141C59.034 286.141 58.5487 286.043 58.166 285.847C57.7834 285.651 57.4987 285.394 57.312 285.077C57.1254 284.75 57.032 284.395 57.032 284.013C57.032 283.341 57.2934 282.809 57.816 282.417C58.3387 282.025 59.0854 281.829 60.056 281.829H61.876V281.703C61.876 281.161 61.7267 280.755 61.428 280.485C61.1387 280.214 60.7607 280.079 60.294 280.079C59.8834 280.079 59.524 280.181 59.216 280.387C58.9174 280.583 58.7354 280.877 58.67 281.269H57.186C57.2327 280.765 57.4007 280.335 57.69 279.981C57.9887 279.617 58.362 279.341 58.81 279.155C59.2674 278.959 59.7667 278.861 60.308 278.861C61.2787 278.861 62.03 279.117 62.562 279.631C63.094 280.135 63.36 280.825 63.36 281.703V285.973H62.072L61.946 284.783C61.75 285.165 61.4654 285.487 61.092 285.749C60.7187 286.01 60.2287 286.141 59.622 286.141ZM59.916 284.937C60.3174 284.937 60.6534 284.843 60.924 284.657C61.204 284.461 61.4187 284.204 61.568 283.887C61.7267 283.569 61.8247 283.219 61.862 282.837H60.21C59.622 282.837 59.202 282.939 58.95 283.145C58.7074 283.35 58.586 283.607 58.586 283.915C58.586 284.232 58.7027 284.484 58.936 284.671C59.1787 284.848 59.5054 284.937 59.916 284.937ZM65.0903 285.973V279.029H66.4063L66.5183 280.247C66.733 279.817 67.0457 279.481 67.4563 279.239C67.8763 278.987 68.357 278.861 68.8983 278.861C69.7383 278.861 70.3963 279.122 70.8723 279.645C71.3577 280.167 71.6003 280.947 71.6003 281.983V285.973H70.1303V282.137C70.1303 280.793 69.5797 280.121 68.4783 280.121C67.9277 280.121 67.4703 280.317 67.1063 280.709C66.7517 281.101 66.5743 281.661 66.5743 282.389V285.973H65.0903ZM75.9102 286.141C75.0702 286.141 74.4075 285.879 73.9222 285.357C73.4462 284.834 73.2082 284.055 73.2082 283.019V279.029H74.6922V282.865C74.6922 284.209 75.2428 284.881 76.3442 284.881C76.8948 284.881 77.3475 284.685 77.7022 284.293C78.0568 283.901 78.2342 283.341 78.2342 282.613V279.029H79.7182V285.973H78.4022L78.2902 284.755C78.0755 285.184 77.7582 285.525 77.3382 285.777C76.9275 286.019 76.4515 286.141 75.9102 286.141ZM83.958 286.141C83.37 286.141 82.8846 286.043 82.502 285.847C82.1193 285.651 81.8346 285.394 81.648 285.077C81.4613 284.75 81.368 284.395 81.368 284.013C81.368 283.341 81.6293 282.809 82.152 282.417C82.6746 282.025 83.4213 281.829 84.392 281.829H86.212V281.703C86.212 281.161 86.0626 280.755 85.764 280.485C85.4746 280.214 85.0966 280.079 84.63 280.079C84.2193 280.079 83.86 280.181 83.552 280.387C83.2533 280.583 83.0713 280.877 83.006 281.269H81.522C81.5686 280.765 81.7366 280.335 82.026 279.981C82.3246 279.617 82.698 279.341 83.146 279.155C83.6033 278.959 84.1026 278.861 84.644 278.861C85.6146 278.861 86.366 279.117 86.898 279.631C87.43 280.135 87.696 280.825 87.696 281.703V285.973H86.408L86.282 284.783C86.086 285.165 85.8013 285.487 85.428 285.749C85.0546 286.01 84.5646 286.141 83.958 286.141ZM84.252 284.937C84.6533 284.937 84.9893 284.843 85.26 284.657C85.54 284.461 85.7546 284.204 85.904 283.887C86.0626 283.569 86.1606 283.219 86.198 282.837H84.546C83.958 282.837 83.538 282.939 83.286 283.145C83.0433 283.35 82.922 283.607 82.922 283.915C82.922 284.232 83.0386 284.484 83.272 284.671C83.5146 284.848 83.8413 284.937 84.252 284.937ZM89.4263 285.973V279.029H90.7563L90.8823 280.345C91.1249 279.887 91.4609 279.528 91.8903 279.267C92.3289 278.996 92.8563 278.861 93.4723 278.861V280.415H93.0663C92.6556 280.415 92.2869 280.485 91.9603 280.625C91.6429 280.755 91.3863 280.984 91.1903 281.311C91.0036 281.628 90.9103 282.071 90.9103 282.641V285.973H89.4263ZM95.5566 289.053L97.2226 285.399H96.8166L94.0726 279.029H95.6826L97.8106 284.167L100.037 279.029H101.605L97.1246 289.053H95.5566Z" fill="black"/>
<path d="M184.6 259.065V249.975" stroke="black"/>
<path d="M156.001 285.973V276.173H162.147V277.377H157.485V280.471H161.349V281.661H157.485V285.973H156.001ZM166.453 286.141C165.772 286.141 165.165 285.991 164.633 285.693C164.11 285.385 163.7 284.96 163.401 284.419C163.102 283.877 162.953 283.247 162.953 282.529C162.953 281.801 163.098 281.161 163.387 280.611C163.686 280.06 164.096 279.631 164.619 279.323C165.151 279.015 165.767 278.861 166.467 278.861C167.148 278.861 167.741 279.015 168.245 279.323C168.749 279.621 169.141 280.023 169.421 280.527C169.701 281.031 169.841 281.586 169.841 282.193C169.841 282.286 169.836 282.389 169.827 282.501C169.827 282.603 169.822 282.72 169.813 282.851H164.409C164.456 283.523 164.675 284.036 165.067 284.391C165.468 284.736 165.93 284.909 166.453 284.909C166.873 284.909 167.223 284.815 167.503 284.629C167.792 284.433 168.007 284.171 168.147 283.845H169.631C169.444 284.498 169.071 285.044 168.511 285.483C167.96 285.921 167.274 286.141 166.453 286.141ZM166.453 280.079C165.958 280.079 165.52 280.228 165.137 280.527C164.754 280.816 164.521 281.255 164.437 281.843H168.357C168.329 281.301 168.138 280.872 167.783 280.555C167.428 280.237 166.985 280.079 166.453 280.079ZM175.287 286.141C174.746 286.141 174.265 286.033 173.845 285.819C173.434 285.604 173.108 285.301 172.865 284.909L172.711 285.973H171.381V275.893H172.865V280.107C173.089 279.78 173.397 279.491 173.789 279.239C174.181 278.987 174.685 278.861 175.301 278.861C175.973 278.861 176.566 279.019 177.079 279.337C177.592 279.654 177.994 280.088 178.283 280.639C178.582 281.189 178.731 281.815 178.731 282.515C178.731 283.215 178.582 283.84 178.283 284.391C177.994 284.932 177.592 285.361 177.079 285.679C176.566 285.987 175.968 286.141 175.287 286.141ZM175.035 284.853C175.67 284.853 176.192 284.638 176.603 284.209C177.014 283.77 177.219 283.201 177.219 282.501C177.219 282.043 177.126 281.637 176.939 281.283C176.752 280.928 176.496 280.653 176.169 280.457C175.842 280.251 175.464 280.149 175.035 280.149C174.4 280.149 173.878 280.368 173.467 280.807C173.066 281.245 172.865 281.81 172.865 282.501C172.865 283.201 173.066 283.77 173.467 284.209C173.878 284.638 174.4 284.853 175.035 284.853ZM180.336 285.973V279.029H181.666L181.792 280.345C182.035 279.887 182.371 279.528 182.8 279.267C183.239 278.996 183.766 278.861 184.382 278.861V280.415H183.976C183.565 280.415 183.197 280.485 182.87 280.625C182.553 280.755 182.296 280.984 182.1 281.311C181.913 281.628 181.82 282.071 181.82 282.641V285.973H180.336ZM188.216 286.141C187.376 286.141 186.714 285.879 186.228 285.357C185.752 284.834 185.514 284.055 185.514 283.019V279.029H186.998V282.865C186.998 284.209 187.549 284.881 188.65 284.881C189.201 284.881 189.654 284.685 190.008 284.293C190.363 283.901 190.54 283.341 190.54 282.613V279.029H192.024V285.973H190.708L190.596 284.755C190.382 285.184 190.064 285.525 189.644 285.777C189.234 286.019 188.758 286.141 188.216 286.141ZM196.264 286.141C195.676 286.141 195.191 286.043 194.808 285.847C194.425 285.651 194.141 285.394 193.954 285.077C193.767 284.75 193.674 284.395 193.674 284.013C193.674 283.341 193.935 282.809 194.458 282.417C194.981 282.025 195.727 281.829 196.698 281.829H198.518V281.703C198.518 281.161 198.369 280.755 198.07 280.485C197.781 280.214 197.403 280.079 196.936 280.079C196.525 280.079 196.166 280.181 195.858 280.387C195.559 280.583 195.377 280.877 195.312 281.269H193.828C193.875 280.765 194.043 280.335 194.332 279.981C194.631 279.617 195.004 279.341 195.452 279.155C195.909 278.959 196.409 278.861 196.95 278.861C197.921 278.861 198.672 279.117 199.204 279.631C199.736 280.135 200.002 280.825 200.002 281.703V285.973H198.714L198.588 284.783C198.392 285.165 198.107 285.487 197.734 285.749C197.361 286.01 196.871 286.141 196.264 286.141ZM196.558 284.937C196.959 284.937 197.295 284.843 197.566 284.657C197.846 284.461 198.061 284.204 198.21 283.887C198.369 283.569 198.467 283.219 198.504 282.837H196.852C196.264 282.837 195.844 282.939 195.592 283.145C195.349 283.35 195.228 283.607 195.228 283.915C195.228 284.232 195.345 284.484 195.578 284.671C195.821 284.848 196.147 284.937 196.558 284.937ZM201.732 285.973V279.029H203.062L203.188 280.345C203.431 279.887 203.767 279.528 204.196 279.267C204.635 278.996 205.162 278.861 205.778 278.861V280.415H205.372C204.962 280.415 204.593 280.485 204.266 280.625C203.949 280.755 203.692 280.984 203.496 281.311C203.31 281.628 203.216 282.071 203.216 282.641V285.973H201.732ZM207.863 289.053L209.529 285.399H209.123L206.379 279.029H207.989L210.117 284.167L212.343 279.029H213.911L209.431 289.053H207.863Z" fill="black"/>
<path d="M304.2 259.065V249.975" stroke="black"/>
<path d="M284.44 285.973V276.173H286.19L289.508 282.697L292.812 276.173H294.562V285.973H293.078V278.735L290.082 284.573H288.934L285.924 278.749V285.973H284.44ZM298.85 286.141C298.262 286.141 297.776 286.043 297.394 285.847C297.011 285.651 296.726 285.394 296.54 285.077C296.353 284.75 296.26 284.395 296.26 284.013C296.26 283.341 296.521 282.809 297.044 282.417C297.566 282.025 298.313 281.829 299.284 281.829H301.104V281.703C301.104 281.161 300.954 280.755 300.656 280.485C300.366 280.214 299.988 280.079 299.522 280.079C299.111 280.079 298.752 280.181 298.444 280.387C298.145 280.583 297.963 280.877 297.898 281.269H296.414C296.46 280.765 296.628 280.335 296.918 279.981C297.216 279.617 297.59 279.341 298.038 279.155C298.495 278.959 298.994 278.861 299.536 278.861C300.506 278.861 301.258 279.117 301.79 279.631C302.322 280.135 302.588 280.825 302.588 281.703V285.973H301.3L301.174 284.783C300.978 285.165 300.693 285.487 300.32 285.749C299.946 286.01 299.456 286.141 298.85 286.141ZM299.144 284.937C299.545 284.937 299.881 284.843 300.152 284.657C300.432 284.461 300.646 284.204 300.796 283.887C300.954 283.569 301.052 283.219 301.09 282.837H299.438C298.85 282.837 298.43 282.939 298.178 283.145C297.935 283.35 297.814 283.607 297.814 283.915C297.814 284.232 297.93 284.484 298.164 284.671C298.406 284.848 298.733 284.937 299.144 284.937ZM304.318 285.973V279.029H305.648L305.774 280.345C306.017 279.887 306.353 279.528 306.782 279.267C307.221 278.996 307.748 278.861 308.364 278.861V280.415H307.958C307.547 280.415 307.179 280.485 306.852 280.625C306.535 280.755 306.278 280.984 306.082 281.311C305.895 281.628 305.802 282.071 305.802 282.641V285.973H304.318ZM312.735 286.141C312.054 286.141 311.442 285.987 310.901 285.679C310.369 285.371 309.949 284.946 309.641 284.405C309.342 283.854 309.193 283.219 309.193 282.501C309.193 281.782 309.342 281.152 309.641 280.611C309.949 280.06 310.369 279.631 310.901 279.323C311.442 279.015 312.054 278.861 312.735 278.861C313.594 278.861 314.312 279.085 314.891 279.533C315.479 279.981 315.857 280.587 316.025 281.353H314.471C314.378 280.97 314.172 280.671 313.855 280.457C313.538 280.242 313.164 280.135 312.735 280.135C312.371 280.135 312.035 280.228 311.727 280.415C311.419 280.592 311.172 280.858 310.985 281.213C310.798 281.558 310.705 281.987 310.705 282.501C310.705 283.014 310.798 283.448 310.985 283.803C311.172 284.148 311.419 284.414 311.727 284.601C312.035 284.787 312.371 284.881 312.735 284.881C313.164 284.881 313.538 284.773 313.855 284.559C314.172 284.344 314.378 284.041 314.471 283.649H316.025C315.866 284.395 315.493 284.997 314.905 285.455C314.317 285.912 313.594 286.141 312.735 286.141ZM317.634 285.973V275.893H319.118V280.149C319.352 279.747 319.674 279.435 320.084 279.211C320.504 278.977 320.966 278.861 321.47 278.861C322.301 278.861 322.954 279.122 323.43 279.645C323.906 280.167 324.144 280.947 324.144 281.983V285.973H322.674V282.137C322.674 280.793 322.138 280.121 321.064 280.121C320.504 280.121 320.038 280.317 319.664 280.709C319.3 281.101 319.118 281.661 319.118 282.389V285.973H317.634Z" fill="black"/>
<path d="M423.8 259.065V249.975" stroke="black"/>
<path d="M409.297 285.973L412.909 276.173H414.533L418.117 285.973H416.549L415.709 283.579H411.705L410.865 285.973H409.297ZM412.125 282.403H415.289L413.707 277.937L412.125 282.403ZM419.427 289.053V279.029H420.757L420.911 280.107C421.135 279.78 421.443 279.491 421.835 279.239C422.227 278.987 422.731 278.861 423.347 278.861C424.019 278.861 424.612 279.019 425.125 279.337C425.639 279.654 426.04 280.088 426.329 280.639C426.628 281.189 426.777 281.815 426.777 282.515C426.777 283.215 426.628 283.84 426.329 284.391C426.04 284.932 425.639 285.361 425.125 285.679C424.612 285.987 424.015 286.141 423.333 286.141C422.792 286.141 422.311 286.033 421.891 285.819C421.481 285.604 421.154 285.301 420.911 284.909V289.053H419.427ZM423.081 284.853C423.716 284.853 424.239 284.638 424.649 284.209C425.06 283.77 425.265 283.201 425.265 282.501C425.265 282.043 425.172 281.637 424.985 281.283C424.799 280.928 424.542 280.653 424.215 280.457C423.889 280.251 423.511 280.149 423.081 280.149C422.447 280.149 421.924 280.368 421.513 280.807C421.112 281.245 420.911 281.81 420.911 282.501C420.911 283.201 421.112 283.77 421.513 284.209C421.924 284.638 422.447 284.853 423.081 284.853ZM428.382 285.973V279.029H429.712L429.838 280.345C430.081 279.887 430.417 279.528 430.846 279.267C431.285 278.996 431.812 278.861 432.428 278.861V280.415H432.022C431.612 280.415 431.243 280.485 430.916 280.625C430.599 280.755 430.342 280.984 430.146 281.311C429.96 281.628 429.866 282.071 429.866 282.641V285.973H428.382ZM434.541 277.713C434.261 277.713 434.027 277.629 433.841 277.461C433.663 277.283 433.575 277.064 433.575 276.803C433.575 276.541 433.663 276.327 433.841 276.159C434.027 275.981 434.261 275.893 434.541 275.893C434.821 275.893 435.049 275.981 435.227 276.159C435.413 276.327 435.507 276.541 435.507 276.803C435.507 277.064 435.413 277.283 435.227 277.461C435.049 277.629 434.821 277.713 434.541 277.713ZM433.799 285.973V279.029H435.283V285.973H433.799ZM437.242 285.973V275.893H438.726V285.973H437.242Z" fill="black"/>
<path d="M543.4 259.065V249.975" stroke="black"/>
<path d="M530.496 285.973V276.173H532.246L535.564 282.697L538.868 276.173H540.618V285.973H539.134V278.735L536.138 284.573H534.99L531.98 278.749V285.973H530.496ZM544.906 286.141C544.318 286.141 543.832 286.043 543.45 285.847C543.067 285.651 542.782 285.394 542.596 285.077C542.409 284.75 542.316 284.395 542.316 284.013C542.316 283.341 542.577 282.809 543.1 282.417C543.622 282.025 544.369 281.829 545.34 281.829H547.16V281.703C547.16 281.161 547.01 280.755 546.712 280.485C546.422 280.214 546.044 280.079 545.578 280.079C545.167 280.079 544.808 280.181 544.5 280.387C544.201 280.583 544.019 280.877 543.954 281.269H542.47C542.516 280.765 542.684 280.335 542.974 279.981C543.272 279.617 543.646 279.341 544.094 279.155C544.551 278.959 545.05 278.861 545.592 278.861C546.562 278.861 547.314 279.117 547.846 279.631C548.378 280.135 548.644 280.825 548.644 281.703V285.973H547.356L547.23 284.783C547.034 285.165 546.749 285.487 546.376 285.749C546.002 286.01 545.512 286.141 544.906 286.141ZM545.2 284.937C545.601 284.937 545.937 284.843 546.208 284.657C546.488 284.461 546.702 284.204 546.852 283.887C547.01 283.569 547.108 283.219 547.146 282.837H545.494C544.906 282.837 544.486 282.939 544.234 283.145C543.991 283.35 543.87 283.607 543.87 283.915C543.87 284.232 543.986 284.484 544.22 284.671C544.462 284.848 544.789 284.937 545.2 284.937ZM550.967 289.053L552.633 285.399H552.227L549.483 279.029H551.093L553.221 284.167L555.447 279.029H557.015L552.535 289.053H550.967Z" fill="black"/>
<path d="M663 259.065V249.975" stroke="black"/>
<path d="M637.405 286.141C636.49 286.141 635.762 285.884 635.221 285.371C634.689 284.857 634.423 284.134 634.423 283.201H635.907C635.907 283.667 636.019 284.055 636.243 284.363C636.476 284.671 636.854 284.825 637.377 284.825C637.89 284.825 638.254 284.68 638.469 284.391C638.684 284.092 638.791 283.714 638.791 283.257V276.173H640.275V283.257C640.275 284.181 640.018 284.895 639.505 285.399C638.992 285.893 638.292 286.141 637.405 286.141ZM644.764 286.141C643.924 286.141 643.261 285.879 642.776 285.357C642.3 284.834 642.062 284.055 642.062 283.019V279.029H643.546V282.865C643.546 284.209 644.096 284.881 645.198 284.881C645.748 284.881 646.201 284.685 646.556 284.293C646.91 283.901 647.088 283.341 647.088 282.613V279.029H648.572V285.973H647.256L647.144 284.755C646.929 285.184 646.612 285.525 646.192 285.777C645.781 286.019 645.305 286.141 644.764 286.141ZM650.459 285.973V279.029H651.775L651.887 280.247C652.102 279.817 652.415 279.481 652.825 279.239C653.245 278.987 653.726 278.861 654.267 278.861C655.107 278.861 655.765 279.122 656.241 279.645C656.727 280.167 656.969 280.947 656.969 281.983V285.973H655.499V282.137C655.499 280.793 654.949 280.121 653.847 280.121C653.297 280.121 652.839 280.317 652.475 280.709C652.121 281.101 651.943 281.661 651.943 282.389V285.973H650.459ZM661.965 286.141C661.284 286.141 660.677 285.991 660.145 285.693C659.623 285.385 659.212 284.96 658.913 284.419C658.615 283.877 658.465 283.247 658.465 282.529C658.465 281.801 658.61 281.161 658.899 280.611C659.198 280.06 659.609 279.631 660.131 279.323C660.663 279.015 661.279 278.861 661.979 278.861C662.661 278.861 663.253 279.015 663.757 279.323C664.261 279.621 664.653 280.023 664.933 280.527C665.213 281.031 665.353 281.586 665.353 282.193C665.353 282.286 665.349 282.389 665.339 282.501C665.339 282.603 665.335 282.72 665.325 282.851H659.921C659.968 283.523 660.187 284.036 660.579 284.391C660.981 284.736 661.443 284.909 661.965 284.909C662.385 284.909 662.735 284.815 663.015 284.629C663.305 284.433 663.519 284.171 663.659 283.845H665.143C664.957 284.498 664.583 285.044 664.023 285.483C663.473 285.921 662.787 286.141 661.965 286.141ZM661.965 280.079C661.471 280.079 661.032 280.228 660.649 280.527C660.267 280.816 660.033 281.255 659.949 281.843H663.869C663.841 281.301 663.65 280.872 663.295 280.555C662.941 280.237 662.497 280.079 661.965 280.079Z" fill="black"/>
<path d="M65 7.575V249.975" stroke="black"/>
<path d="M59 249.975H65" stroke="black"/>
<path d="M49.0839 252.417C48.1973 252.417 47.4319 252.207 46.7879 251.787C46.1533 251.358 45.6633 250.765 45.3179 250.009C44.9819 249.244 44.8139 248.357 44.8139 247.349C44.8139 246.341 44.9819 245.459 45.3179 244.703C45.6633 243.938 46.1533 243.345 46.7879 242.925C47.4319 242.496 48.1973 242.281 49.0839 242.281C49.9706 242.281 50.7313 242.496 51.3659 242.925C52.0006 243.345 52.4859 243.938 52.8219 244.703C53.1673 245.459 53.3399 246.341 53.3399 247.349C53.3399 248.357 53.1673 249.244 52.8219 250.009C52.4859 250.765 52.0006 251.358 51.3659 251.787C50.7313 252.207 49.9706 252.417 49.0839 252.417ZM49.0839 251.087C49.6159 251.087 50.0873 250.938 50.4979 250.639C50.9179 250.34 51.2446 249.911 51.4779 249.351C51.7113 248.791 51.8279 248.124 51.8279 247.349C51.8279 246.574 51.7113 245.907 51.4779 245.347C51.2446 244.787 50.9179 244.358 50.4979 244.059C50.0873 243.76 49.6159 243.611 49.0839 243.611C48.5426 243.611 48.0666 243.76 47.6559 244.059C47.2453 244.358 46.9233 244.787 46.6899 245.347C46.4566 245.907 46.3399 246.574 46.3399 247.349C46.3399 248.124 46.4566 248.791 46.6899 249.351C46.9233 249.911 47.2453 250.34 47.6559 250.639C48.0666 250.938 48.5426 251.087 49.0839 251.087Z" fill="black"/>
<path d="M59 189.375H65" stroke="black"/>
<path d="M39.953 191.817C39.2623 191.817 38.665 191.696 38.161 191.453C37.657 191.201 37.2556 190.86 36.957 190.431C36.6676 189.992 36.4903 189.498 36.425 188.947H37.881C37.9743 189.414 38.2076 189.801 38.581 190.109C38.9543 190.408 39.4163 190.557 39.967 190.557C40.3776 190.557 40.7323 190.459 41.031 190.263C41.3296 190.058 41.563 189.787 41.731 189.451C41.899 189.115 41.983 188.737 41.983 188.317C41.983 187.654 41.7963 187.127 41.423 186.735C41.0496 186.334 40.5783 186.133 40.009 186.133C39.5236 186.133 39.1083 186.25 38.763 186.483C38.4176 186.707 38.1656 186.992 38.007 187.337H36.593L37.433 181.849H42.725V183.151H38.553L38.049 185.769C38.2636 185.526 38.5576 185.326 38.931 185.167C39.3136 184.999 39.743 184.915 40.219 184.915C40.8816 184.915 41.451 185.069 41.927 185.377C42.403 185.676 42.767 186.082 43.019 186.595C43.2803 187.108 43.411 187.678 43.411 188.303C43.411 188.956 43.271 189.549 42.991 190.081C42.711 190.613 42.3096 191.038 41.787 191.355C41.2736 191.663 40.6623 191.817 39.953 191.817ZM49.0839 191.817C48.1973 191.817 47.4319 191.607 46.7879 191.187C46.1533 190.758 45.6633 190.165 45.3179 189.409C44.9819 188.644 44.8139 187.757 44.8139 186.749C44.8139 185.741 44.9819 184.859 45.3179 184.103C45.6633 183.338 46.1533 182.745 46.7879 182.325C47.4319 181.896 48.1973 181.681 49.0839 181.681C49.9706 181.681 50.7313 181.896 51.3659 182.325C52.0006 182.745 52.4859 183.338 52.8219 184.103C53.1673 184.859 53.3399 185.741 53.3399 186.749C53.3399 187.757 53.1673 188.644 52.8219 189.409C52.4859 190.165 52.0006 190.758 51.3659 191.187C50.7313 191.607 49.9706 191.817 49.0839 191.817ZM49.0839 190.487C49.6159 190.487 50.0873 190.338 50.4979 190.039C50.9179 189.74 51.2446 189.311 51.4779 188.751C51.7113 188.191 51.8279 187.524 51.8279 186.749C51.8279 185.974 51.7113 185.307 51.4779 184.747C51.2446 184.187 50.9179 183.758 50.4979 183.459C50.0873 183.16 49.6159 183.011 49.0839 183.011C48.5426 183.011 48.0666 183.16 47.6559 183.459C47.2453 183.758 46.9233 184.187 46.6899 184.747C46.4566 185.307 46.3399 185.974 46.3399 186.749C46.3399 187.524 46.4566 188.191 46.6899 188.751C46.9233 189.311 47.2453 189.74 47.6559 190.039C48.0666 190.338 48.5426 190.487 49.0839 190.487Z" fill="black"/>
<path d="M59 128.775H65" stroke="black"/>
<path d="M31.8028 131.049V122.929L30.2208 123.293V122.201L32.3908 121.249H33.3428V131.049H31.8028ZM39.2538 131.217C38.3672 131.217 37.6018 131.007 36.9578 130.587C36.3232 130.158 35.8332 129.565 35.4878 128.809C35.1518 128.044 34.9838 127.157 34.9838 126.149C34.9838 125.141 35.1518 124.259 35.4878 123.503C35.8332 122.738 36.3232 122.145 36.9578 121.725C37.6018 121.296 38.3672 121.081 39.2538 121.081C40.1405 121.081 40.9012 121.296 41.5358 121.725C42.1705 122.145 42.6558 122.738 42.9918 123.503C43.3372 124.259 43.5098 125.141 43.5098 126.149C43.5098 127.157 43.3372 128.044 42.9918 128.809C42.6558 129.565 42.1705 130.158 41.5358 130.587C40.9012 131.007 40.1405 131.217 39.2538 131.217ZM39.2538 129.887C39.7858 129.887 40.2572 129.738 40.6678 129.439C41.0878 129.14 41.4145 128.711 41.6478 128.151C41.8812 127.591 41.9978 126.924 41.9978 126.149C41.9978 125.374 41.8812 124.707 41.6478 124.147C41.4145 123.587 41.0878 123.158 40.6678 122.859C40.2572 122.56 39.7858 122.411 39.2538 122.411C38.7125 122.411 38.2365 122.56 37.8258 122.859C37.4152 123.158 37.0932 123.587 36.8598 124.147C36.6265 124.707 36.5098 125.374 36.5098 126.149C36.5098 126.924 36.6265 127.591 36.8598 128.151C37.0932 128.711 37.4152 129.14 37.8258 129.439C38.2365 129.738 38.7125 129.887 39.2538 129.887ZM49.0839 131.217C48.1973 131.217 47.4319 131.007 46.7879 130.587C46.1533 130.158 45.6633 129.565 45.3179 128.809C44.9819 128.044 44.8139 127.157 44.8139 126.149C44.8139 125.141 44.9819 124.259 45.3179 123.503C45.6633 122.738 46.1533 122.145 46.7879 121.725C47.4319 121.296 48.1973 121.081 49.0839 121.081C49.9706 121.081 50.7313 121.296 51.3659 121.725C52.0006 122.145 52.4859 122.738 52.8219 123.503C53.1673 124.259 53.3399 125.141 53.3399 126.149C53.3399 127.157 53.1673 128.044 52.8219 128.809C52.4859 129.565 52.0006 130.158 51.3659 130.587C50.7313 131.007 49.9706 131.217 49.0839 131.217ZM49.0839 129.887C49.6159 129.887 50.0873 129.738 50.4979 129.439C50.9179 129.14 51.2446 128.711 51.4779 128.151C51.7113 127.591 51.8279 126.924 51.8279 126.149C51.8279 125.374 51.7113 124.707 51.4779 124.147C51.2446 123.587 50.9179 123.158 50.4979 122.859C50.0873 122.56 49.6159 122.411 49.0839 122.411C48.5426 122.411 48.0666 122.56 47.6559 122.859C47.2453 123.158 46.9233 123.587 46.6899 124.147C46.4566 124.707 46.3399 125.374 46.3399 126.149C46.3399 126.924 46.4566 127.591 46.6899 128.151C46.9233 128.711 47.2453 129.14 47.6559 129.439C48.0666 129.738 48.5426 129.887 49.0839 129.887Z" fill="black"/>
<path d="M59 68.175H65" stroke="black"/>
<path d="M33.0059 70.4489V62.3289L31.4239 62.6929V61.6009L33.5939 60.6489H34.5459V70.4489H33.0059ZM39.953 70.6169C39.2623 70.6169 38.665 70.4956 38.161 70.2529C37.657 70.0009 37.2556 69.6602 36.957 69.2309C36.6676 68.7922 36.4903 68.2976 36.425 67.7469H37.881C37.9743 68.2136 38.2076 68.6009 38.581 68.9089C38.9543 69.2076 39.4163 69.3569 39.967 69.3569C40.3776 69.3569 40.7323 69.2589 41.031 69.0629C41.3296 68.8576 41.563 68.5869 41.731 68.2509C41.899 67.9149 41.983 67.5369 41.983 67.1169C41.983 66.4542 41.7963 65.9269 41.423 65.5349C41.0496 65.1336 40.5783 64.9329 40.009 64.9329C39.5236 64.9329 39.1083 65.0496 38.763 65.2829C38.4176 65.5069 38.1656 65.7916 38.007 66.1369H36.593L37.433 60.6489H42.725V61.9509H38.553L38.049 64.5689C38.2636 64.3262 38.5576 64.1256 38.931 63.9669C39.3136 63.7989 39.743 63.7149 40.219 63.7149C40.8816 63.7149 41.451 63.8689 41.927 64.1769C42.403 64.4756 42.767 64.8816 43.019 65.3949C43.2803 65.9082 43.411 66.4776 43.411 67.1029C43.411 67.7562 43.271 68.3489 42.991 68.8809C42.711 69.4129 42.3096 69.8376 41.787 70.1549C41.2736 70.4629 40.6623 70.6169 39.953 70.6169ZM49.0839 70.6169C48.1973 70.6169 47.4319 70.4069 46.7879 69.9869C46.1533 69.5576 45.6633 68.9649 45.3179 68.2089C44.9819 67.4436 44.8139 66.5569 44.8139 65.5489C44.8139 64.5409 44.9819 63.6589 45.3179 62.9029C45.6633 62.1376 46.1533 61.5449 46.7879 61.1249C47.4319 60.6956 48.1973 60.4809 49.0839 60.4809C49.9706 60.4809 50.7313 60.6956 51.3659 61.1249C52.0006 61.5449 52.4859 62.1376 52.8219 62.9029C53.1673 63.6589 53.3399 64.5409 53.3399 65.5489C53.3399 66.5569 53.1673 67.4436 52.8219 68.2089C52.4859 68.9649 52.0006 69.5576 51.3659 69.9869C50.7313 70.4069 49.9706 70.6169 49.0839 70.6169ZM49.0839 69.2869C49.6159 69.2869 50.0873 69.1376 50.4979 68.8389C50.9179 68.5402 51.2446 68.1109 51.4779 67.5509C51.7113 66.9909 51.8279 66.3236 51.8279 65.5489C51.8279 64.7742 51.7113 64.1069 51.4779 63.5469C51.2446 62.9869 50.9179 62.5576 50.4979 62.2589C50.0873 61.9602 49.6159 61.8109 49.0839 61.8109C48.5426 61.8109 48.0666 61.9602 47.6559 62.2589C47.2453 62.5576 46.9233 62.9869 46.6899 63.5469C46.4566 64.1069 46.3399 64.7742 46.3399 65.5489C46.3399 66.3236 46.4566 66.9909 46.6899 67.5509C46.9233 68.1109 47.2453 68.5402 47.6559 68.8389C48.0666 69.1376 48.5426 69.2869 49.0839 69.2869Z" fill="black"/>
<path d="M59 7.575H65" stroke="black"/>
<path d="M27.2355 16.2065V15.1425C27.8702 14.6385 28.4768 14.1298 29.0555 13.6165C29.6342 13.1032 30.1475 12.5992 30.5955 12.1045C31.0528 11.6005 31.4122 11.1105 31.6735 10.6345C31.9348 10.1492 32.0655 9.68249 32.0655 9.23449C32.0655 8.93582 32.0142 8.65582 31.9115 8.39449C31.8088 8.12382 31.6408 7.90916 31.4075 7.75049C31.1742 7.58249 30.8615 7.49849 30.4695 7.49849C29.8815 7.49849 29.4382 7.68516 29.1395 8.05849C28.8502 8.43182 28.7102 8.87982 28.7195 9.40249H27.2775C27.2868 8.71182 27.4315 8.13316 27.7115 7.66649C28.0008 7.19982 28.3835 6.84516 28.8595 6.60249C29.3448 6.35982 29.8908 6.23849 30.4975 6.23849C31.4215 6.23849 32.1588 6.49982 32.7095 7.02249C33.2695 7.53582 33.5495 8.25449 33.5495 9.17849C33.5495 9.72916 33.4142 10.2752 33.1435 10.8165C32.8822 11.3578 32.5368 11.8805 32.1075 12.3845C31.6875 12.8792 31.2348 13.3458 30.7495 13.7845C30.2642 14.2232 29.8022 14.6198 29.3635 14.9745H33.8435V16.2065H27.2355ZM39.2538 16.3745C38.3672 16.3745 37.6018 16.1645 36.9578 15.7445C36.3232 15.3152 35.8332 14.7225 35.4878 13.9665C35.1518 13.2012 34.9838 12.3145 34.9838 11.3065C34.9838 10.2985 35.1518 9.41649 35.4878 8.66049C35.8332 7.89516 36.3232 7.30249 36.9578 6.88249C37.6018 6.45316 38.3672 6.23849 39.2538 6.23849C40.1405 6.23849 40.9012 6.45316 41.5358 6.88249C42.1705 7.30249 42.6558 7.89516 42.9918 8.66049C43.3372 9.41649 43.5098 10.2985 43.5098 11.3065C43.5098 12.3145 43.3372 13.2012 42.9918 13.9665C42.6558 14.7225 42.1705 15.3152 41.5358 15.7445C40.9012 16.1645 40.1405 16.3745 39.2538 16.3745ZM39.2538 15.0445C39.7858 15.0445 40.2572 14.8952 40.6678 14.5965C41.0878 14.2978 41.4145 13.8685 41.6478 13.3085C41.8812 12.7485 41.9978 12.0812 41.9978 11.3065C41.9978 10.5318 41.8812 9.86449 41.6478 9.30449C41.4145 8.74449 41.0878 8.31516 40.6678 8.01649C40.2572 7.71782 39.7858 7.56849 39.2538 7.56849C38.7125 7.56849 38.2365 7.71782 37.8258 8.01649C37.4152 8.31516 37.0932 8.74449 36.8598 9.30449C36.6265 9.86449 36.5098 10.5318 36.5098 11.3065C36.5098 12.0812 36.6265 12.7485 36.8598 13.3085C37.0932 13.8685 37.4152 14.2978 37.8258 14.5965C38.2365 14.8952 38.7125 15.0445 39.2538 15.0445ZM49.0839 16.3745C48.1973 16.3745 47.4319 16.1645 46.7879 15.7445C46.1533 15.3152 45.6633 14.7225 45.3179 13.9665C44.9819 13.2012 44.8139 12.3145 44.8139 11.3065C44.8139 10.2985 44.9819 9.41649 45.3179 8.66049C45.6633 7.89516 46.1533 7.30249 46.7879 6.88249C47.4319 6.45316 48.1973 6.23849 49.0839 6.23849C49.9706 6.23849 50.7313 6.45316 51.3659 6.88249C52.0006 7.30249 52.4859 7.89516 52.8219 8.66049C53.1673 9.41649 53.3399 10.2985 53.3399 11.3065C53.3399 12.3145 53.1673 13.2012 52.8219 13.9665C52.4859 14.7225 52.0006 15.3152 51.3659 15.7445C50.7313 16.1645 49.9706 16.3745 49.0839 16.3745ZM49.0839 15.0445C49.6159 15.0445 50.0873 14.8952 50.4979 14.5965C50.9179 14.2978 51.2446 13.8685 51.4779 13.3085C51.7113 12.7485 51.8279 12.0812 51.8279 11.3065C51.8279 10.5318 51.7113 9.86449 51.4779 9.30449C51.2446 8.74449 50.9179 8.31516 50.4979 8.01649C50.0873 7.71782 49.6159 7.56849 49.0839 7.56849C48.5426 7.56849 48.0666 7.71782 47.6559 8.01649C47.2453 8.31516 46.9233 8.74449 46.6899 9.30449C46.4566 9.86449 46.3399 10.5318 46.3399 11.3065C46.3399 12.0812 46.4566 12.7485 46.6899 13.3085C46.9233 13.8685 47.2453 14.2978 47.6559 14.5965C48.0666 14.8952 48.5426 15.0445 49.0839 15.0445Z" fill="black"/>
<path d="M65 161.499L184.6 129.987L304.2 29.391L423.8 103.323L543.4 48.783L663 70.599" stroke="#6786F4"/>
<path d="M65 166.044C66.6569 166.044 68 164.009 68 161.499C68 158.989 66.6569 156.954 65 156.954C63.3431 156.954 62 158.989 62 161.499C62 164.009 63.3431 166.044 65 166.044Z" fill="#0D267D"/>
<path d="M184.6 134.532C186.257 134.532 187.6 132.497 187.6 129.987C187.6 127.477 186.257 125.442 184.6 125.442C182.943 125.442 181.6 127.477 181.6 129.987C181.6 132.497 182.943 134.532 184.6 134.532Z" fill="#0D267D"/>
<path d="M304.2 33.936C305.857 33.936 307.2 31.9011 307.2 29.391C307.2 26.8809 305.857 24.846 304.2 24.846C302.543 24.846 301.2 26.8809 301.2 29.391C301.2 31.9011 302.543 33.936 304.2 33.936Z" fill="#0D267D"/>
<path d="M423.8 107.868C425.457 107.868 426.8 105.833 426.8 103.323C426.8 100.813 425.457 98.778 423.8 98.778C422.143 98.778 420.8 100.813 420.8 103.323C420.8 105.833 422.143 107.868 423.8 107.868Z" fill="#0D267D"/>
<path d="M543.4 53.328C545.057 53.328 546.4 51.2931 546.4 48.783C546.4 46.2729 545.057 44.238 543.4 44.238C541.743 44.238 540.4 46.2729 540.4 48.783C540.4 51.2931 541.743 53.328 543.4 53.328Z" fill="#0D267D"/>
<path d="M663 75.144C664.657 75.144 666 73.1091 666 70.599C666 68.0889 664.657 66.054 663 66.054C661.343 66.054 660 68.0889 660 70.599C660 73.1091 661.343 75.144 663 75.144Z" fill="#0D267D"/>
</svg>
