<svg width="49" height="51" viewBox="0 0 49 51" fill="none" xmlns="http://www.w3.org/2000/svg">
<g id="Iconly/Bold/Chat">
<g id="Chat">
<path id="Chat_2" fill-rule="evenodd" clip-rule="evenodd" d="M4.08325 25.5319C4.08325 14.3376 12.6787 4.25 24.5408 4.25C36.1374 4.25 44.9166 14.1461 44.9166 25.4681C44.9166 38.599 34.6266 46.75 24.4999 46.75C21.1516 46.75 17.4358 45.8136 14.4549 43.9834C13.4137 43.3236 12.5358 42.8341 11.4128 43.2172L7.28867 44.4941C6.24742 44.8346 5.30825 43.9833 5.6145 42.8341L6.98242 38.067C7.207 37.4072 7.16617 36.7049 6.8395 36.1516C5.08367 32.7891 4.08325 29.1073 4.08325 25.5319ZM21.8458 25.5319C21.8458 27.0429 23.0095 28.256 24.4591 28.2773C25.9087 28.2773 27.0724 27.0429 27.0724 25.5532C27.0724 24.0422 25.9087 22.8291 24.4591 22.8291C23.0299 22.8078 21.8458 24.0422 21.8458 25.5319ZM31.2578 25.5532C31.2578 27.0429 32.4216 28.2773 33.8712 28.2773C35.3208 28.2773 36.4845 27.0429 36.4845 25.5532C36.4845 24.0422 35.3208 22.8291 33.8712 22.8291C32.4216 22.8291 31.2578 24.0422 31.2578 25.5532ZM15.047 28.2773C13.6178 28.2773 12.4337 27.0429 12.4337 25.5532C12.4337 24.0422 13.5974 22.8291 15.047 22.8291C16.4966 22.8291 17.6603 24.0422 17.6603 25.5532C17.6603 27.0429 16.4966 28.256 15.047 28.2773Z" fill="white"/>
</g>
</g>
</svg>
