<svg width="14" height="14" viewBox="0 0 14 14" fill="none" xmlns="http://www.w3.org/2000/svg">
<path id="Vector" d="M6.916 4.998C7.812 5.04 8.043 5.803 8.057 6.16H9.31C9.254 4.774 8.267 3.927 6.895 3.927C5.348 3.927 4.2 4.9 4.2 7.098C4.2 8.456 4.851 10.066 6.888 10.066C8.442 10.066 9.275 8.911 9.296 8.001H8.043C8.022 8.414 7.728 8.967 6.902 9.009C5.985 8.981 5.6 8.267 5.6 7.098C5.6 5.075 6.496 5.012 6.916 4.998ZM7 0C3.136 0 0 3.136 0 7C0 10.864 3.136 14 7 14C10.864 14 14 10.864 14 7C14 3.136 10.864 0 7 0ZM7 12.6C3.913 12.6 1.4 10.087 1.4 7C1.4 3.913 3.913 1.4 7 1.4C10.087 1.4 12.6 3.913 12.6 7C12.6 10.087 10.087 12.6 7 12.6Z" fill="white"/>
</svg>
