<svg width="15" height="17" viewBox="0 0 15 17" fill="none" xmlns="http://www.w3.org/2000/svg">
<path d="M1.03809 3.98816H2.43809H13.6381" stroke="white" stroke-width="2" stroke-linecap="round" stroke-linejoin="round"/>
<path d="M12.2382 3.98823V13.7882C12.2382 14.1595 12.0907 14.5156 11.8282 14.7782C11.5656 15.0407 11.2095 15.1882 10.8382 15.1882H3.83823C3.46693 15.1882 3.11083 15.0407 2.84828 14.7782C2.58573 14.5156 2.43823 14.1595 2.43823 13.7882V3.98823M4.53823 3.98823V2.58823C4.53823 2.21693 4.68573 1.86083 4.94828 1.59828C5.21083 1.33573 5.56693 1.18823 5.93823 1.18823H8.73823C9.10953 1.18823 9.46563 1.33573 9.72818 1.59828C9.99073 1.86083 10.1382 2.21693 10.1382 2.58823V3.98823" stroke="white" stroke-width="2" stroke-linecap="round" stroke-linejoin="round"/>
<path d="M5.93823 7.48816V11.6882" stroke="white" stroke-width="2" stroke-linecap="round" stroke-linejoin="round"/>
<path d="M8.73828 7.48816V11.6882" stroke="white" stroke-width="2" stroke-linecap="round" stroke-linejoin="round"/>
</svg>
