<svg width="16" height="16" viewBox="0 0 16 16" fill="none" xmlns="http://www.w3.org/2000/svg">
<path d="M11.2196 1.73137C11.3918 1.55917 11.5962 1.42258 11.8212 1.32939C12.0462 1.2362 12.2873 1.18823 12.5309 1.18823C12.7744 1.18823 13.0155 1.2362 13.2405 1.32939C13.4655 1.42258 13.6699 1.55917 13.8421 1.73137C14.0143 1.90357 14.1509 2.10799 14.2441 2.33298C14.3373 2.55796 14.3853 2.7991 14.3853 3.04262C14.3853 3.28614 14.3373 3.52728 14.2441 3.75226C14.1509 3.97725 14.0143 4.18167 13.8421 4.35387L4.99119 13.2048L1.38525 14.1882L2.36869 10.5823L11.2196 1.73137Z" stroke="white" stroke-width="2" stroke-linecap="round" stroke-linejoin="round"/>
</svg>
