<svg width="44" height="45" viewBox="0 0 44 45" fill="none" xmlns="http://www.w3.org/2000/svg">
<path d="M33.14 2.48754C33.715 1.9125 34.3977 1.45636 35.149 1.14515C35.9003 0.833943 36.7056 0.673767 37.5188 0.673767C38.3321 0.673767 39.1373 0.833943 39.8886 1.14515C40.6399 1.45636 41.3226 1.9125 41.8977 2.48754C42.4727 3.06257 42.9288 3.74524 43.24 4.49656C43.5512 5.24788 43.7114 6.05314 43.7114 6.86636C43.7114 7.67958 43.5512 8.48484 43.24 9.23616C42.9288 9.98748 42.4727 10.6701 41.8977 11.2452L12.3406 40.8022L0.298828 44.0864L3.58295 32.0446L33.14 2.48754Z" fill="white"/>
</svg>
