<svg width="57" height="56" viewBox="0 0 57 56" fill="none" xmlns="http://www.w3.org/2000/svg">
<rect x="4.49988" y="4" width="48" height="48" rx="24" fill="#E6E9FF"/>
<g clip-path="url(#clip0_30_35)">
<path d="M18.4999 28C18.4999 27.135 18.6099 26.297 18.8159 25.496C19.3683 25.525 19.9181 25.4008 20.4043 25.1369C20.8906 24.873 21.2944 24.4798 21.5711 24.0007C21.8478 23.5217 21.9867 22.9755 21.9724 22.4224C21.958 21.8694 21.791 21.3311 21.4899 20.867C22.6988 19.6776 24.1907 18.8155 25.8249 18.362C26.0759 18.8555 26.4585 19.2699 26.9305 19.5593C27.4024 19.8488 27.9452 20.002 28.4989 20.002C29.0525 20.002 29.5953 19.8488 30.0673 19.5593C30.5392 19.2699 30.9219 18.8555 31.1729 18.362C32.8071 18.8155 34.2989 19.6776 35.5079 20.867C35.2064 21.3312 35.0391 21.8697 35.0247 22.423C35.0103 22.9763 35.1492 23.5228 35.4261 24.002C35.703 24.4813 36.107 24.8746 36.5936 25.1384C37.0801 25.4023 37.6302 25.5264 38.1829 25.497C38.3889 26.297 38.4989 27.135 38.4989 28C38.4989 28.865 38.3889 29.703 38.1829 30.504C37.6303 30.4748 37.0805 30.5989 36.5941 30.8627C36.1077 31.1265 35.7037 31.5197 35.4269 31.9988C35.15 32.4779 35.0111 33.0242 35.0254 33.5773C35.0397 34.1304 35.2067 34.6689 35.5079 35.133C34.2989 36.3224 32.8071 37.1845 31.1729 37.638C30.9219 37.1445 30.5392 36.7301 30.0673 36.4407C29.5953 36.1512 29.0525 35.998 28.4989 35.998C27.9452 35.998 27.4024 36.1512 26.9305 36.4407C26.4585 36.7301 26.0759 37.1445 25.8249 37.638C24.1907 37.1845 22.6988 36.3224 21.4899 35.133C21.7914 34.6688 21.9586 34.1303 21.973 33.577C21.9875 33.0237 21.8486 32.4772 21.5717 31.998C21.2948 31.5187 20.8907 31.1254 20.4042 30.8616C19.9176 30.5977 19.3676 30.4736 18.8149 30.503C18.6099 29.704 18.4999 28.866 18.4999 28ZM23.3039 31C23.9339 32.091 24.1139 33.346 23.8679 34.524C24.2759 34.814 24.7099 35.065 25.1649 35.274C26.0815 34.4528 27.2692 33.9991 28.4999 34C29.7599 34 30.9379 34.471 31.8349 35.274C32.2899 35.065 32.7239 34.814 33.1319 34.524C32.8793 33.32 33.0802 32.0651 33.6959 31C34.3105 29.9344 35.2969 29.1332 36.4659 28.75C36.5121 28.2511 36.5121 27.7489 36.4659 27.25C35.2965 26.8671 34.3097 26.0658 33.6949 25C33.0792 23.9349 32.8783 22.68 33.1309 21.476C32.723 21.1859 32.2888 20.9348 31.8339 20.726C30.9175 21.5469 29.7302 22.0006 28.4999 22C27.2692 22.0009 26.0815 21.5472 25.1649 20.726C24.71 20.9348 24.2758 21.1859 23.8679 21.476C24.1204 22.68 23.9196 23.9349 23.3039 25C22.6892 26.0656 21.7029 26.8668 20.5339 27.25C20.4876 27.7489 20.4876 28.2511 20.5339 28.75C21.7032 29.1329 22.69 29.9342 23.3049 31H23.3039ZM28.4999 31C27.7042 31 26.9412 30.6839 26.3786 30.1213C25.8159 29.5587 25.4999 28.7956 25.4999 28C25.4999 27.2044 25.8159 26.4413 26.3786 25.8787C26.9412 25.3161 27.7042 25 28.4999 25C29.2955 25 30.0586 25.3161 30.6212 25.8787C31.1838 26.4413 31.4999 27.2044 31.4999 28C31.4999 28.7956 31.1838 29.5587 30.6212 30.1213C30.0586 30.6839 29.2955 31 28.4999 31ZM28.4999 29C28.7651 29 29.0194 28.8946 29.207 28.7071C29.3945 28.5196 29.4999 28.2652 29.4999 28C29.4999 27.7348 29.3945 27.4804 29.207 27.2929C29.0194 27.1054 28.7651 27 28.4999 27C28.2347 27 27.9803 27.1054 27.7928 27.2929C27.6052 27.4804 27.4999 27.7348 27.4999 28C27.4999 28.2652 27.6052 28.5196 27.7928 28.7071C27.9803 28.8946 28.2347 29 28.4999 29V29Z" fill="#304FFE"/>
</g>
<rect x="4.49988" y="4" width="48" height="48" rx="24" stroke="#F4F5FF" stroke-width="8"/>
<defs>
<clipPath id="clip0_30_35">
<rect width="24" height="24" fill="white" transform="translate(16.4999 16)"/>
</clipPath>
</defs>
</svg>
