<svg width="57" height="56" viewBox="0 0 57 56" fill="none" xmlns="http://www.w3.org/2000/svg">
<g id="Featured icon">
<rect x="4.16675" y="4" width="48" height="48" rx="24" fill="#E6E9FF"/>
<g id="Group">
<path id="Vector" d="M19.1667 35V21.7C19.1667 21.4947 19.2298 21.2944 19.3475 21.1262C19.4652 20.958 19.6319 20.8302 19.8247 20.76L29.4957 17.244C29.5713 17.2165 29.6524 17.2076 29.7321 17.2181C29.8118 17.2286 29.8878 17.2582 29.9536 17.3043C30.0194 17.3504 30.0732 17.4117 30.1103 17.483C30.1474 17.5544 30.1668 17.6336 30.1667 17.714V22.667L36.4827 24.772C36.682 24.8383 36.8552 24.9657 36.978 25.136C37.1008 25.3063 37.1668 25.511 37.1667 25.721V35H39.1667V37H17.1667V35H19.1667ZM21.1667 35H28.1667V19.855L21.1667 22.401V35ZM35.1667 35V26.442L30.1667 24.775V35H35.1667Z" fill="#304FFE"/>
</g>
<rect x="4.16675" y="4" width="48" height="48" rx="24" stroke="#F4F5FF" stroke-width="8"/>
</g>
</svg>
