<svg width="57" height="56" viewBox="0 0 57 56" fill="none" xmlns="http://www.w3.org/2000/svg">
<rect x="4.16675" y="4" width="48" height="48" rx="24" fill="#E6E9FF"/>
<path d="M37.1667 27.5C37.1702 28.8199 36.8618 30.1219 36.2667 31.3C35.5612 32.7118 34.4765 33.8992 33.1342 34.7293C31.7919 35.5594 30.245 35.9994 28.6667 36C27.3469 36.0035 26.0449 35.6951 24.8667 35.1L19.1667 37L21.0667 31.3C20.4717 30.1219 20.1633 28.8199 20.1667 27.5C20.1674 25.9218 20.6074 24.3749 21.4375 23.0326C22.2676 21.6903 23.455 20.6056 24.8667 19.9C26.0449 19.305 27.3469 18.9966 28.6667 19H29.1667C31.2511 19.115 33.2198 19.9948 34.6959 21.4709C36.172 22.947 37.0518 24.9157 37.1667 27V27.5Z" stroke="#304FFE" stroke-width="2" stroke-linecap="round" stroke-linejoin="round"/>
<rect x="4.16675" y="4" width="48" height="48" rx="24" stroke="#F4F5FF" stroke-width="8"/>
</svg>
