<svg width="18" height="18" viewBox="0 0 18 18" fill="none" xmlns="http://www.w3.org/2000/svg">
<circle cx="9" cy="9" r="9" fill="black"/>
<path d="M7.90327 11.672C7.84994 11.1173 7.87661 10.648 7.98327 10.264C8.08994 9.86933 8.23394 9.53333 8.41527 9.256C8.60727 8.968 8.82061 8.72267 9.05527 8.52C9.30061 8.30667 9.52461 8.104 9.72727 7.912C9.94061 7.72 10.1166 7.52267 10.2553 7.32C10.3939 7.10667 10.4633 6.856 10.4633 6.568C10.4633 6.19467 10.3566 5.896 10.1433 5.672C9.94061 5.448 9.57261 5.336 9.03927 5.336C8.86861 5.336 8.68727 5.35733 8.49527 5.4C8.30327 5.432 8.11127 5.48533 7.91927 5.56C7.72727 5.624 7.54061 5.704 7.35927 5.8C7.18861 5.88533 7.03394 5.976 6.89527 6.072L6.09527 4.536C6.50061 4.25867 6.96461 4.02933 7.48727 3.848C8.02061 3.66667 8.66061 3.576 9.40727 3.576C10.4099 3.576 11.1939 3.82133 11.7593 4.312C12.3246 4.792 12.6073 5.44267 12.6073 6.264C12.6073 6.808 12.5326 7.26133 12.3833 7.624C12.2446 7.976 12.0686 8.28 11.8553 8.536C11.6419 8.78133 11.4073 9 11.1513 9.192C10.8953 9.384 10.6606 9.592 10.4473 9.816C10.2339 10.0293 10.0526 10.28 9.90327 10.568C9.75394 10.856 9.67927 11.224 9.67927 11.672H7.90327ZM7.58327 13.944C7.58327 13.5707 7.70061 13.2773 7.93527 13.064C8.16994 12.84 8.47927 12.728 8.86327 12.728C9.26861 12.728 9.58861 12.84 9.82327 13.064C10.0579 13.2773 10.1753 13.5707 10.1753 13.944C10.1753 14.3173 10.0579 14.616 9.82327 14.84C9.58861 15.064 9.26861 15.176 8.86327 15.176C8.47927 15.176 8.16994 15.064 7.93527 14.84C7.70061 14.616 7.58327 14.3173 7.58327 13.944Z" fill="white"/>
</svg>
