<svg width="39" height="39" viewBox="0 0 39 39" fill="none" xmlns="http://www.w3.org/2000/svg">
<g id="Instagram">
<path id="Vector" d="M12.9975 3.89999C7.98079 3.89999 3.90002 7.98453 3.90002 13.0025V26.0025C3.90002 31.0192 7.98456 35.1 13.0026 35.1H26.0026C31.0193 35.1 35.1 31.0155 35.1 25.9975V12.9975C35.1 7.98075 31.0155 3.89999 25.9975 3.89999H12.9975ZM28.6 9.09999C29.3176 9.09999 29.9 9.68239 29.9 10.4C29.9 11.1176 29.3176 11.7 28.6 11.7C27.8824 11.7 27.3 11.1176 27.3 10.4C27.3 9.68239 27.8824 9.09999 28.6 9.09999ZM19.5 11.7C23.8017 11.7 27.3 15.1983 27.3 19.5C27.3 23.8017 23.8017 27.3 19.5 27.3C15.1983 27.3 11.7 23.8017 11.7 19.5C11.7 15.1983 15.1983 11.7 19.5 11.7ZM19.5 14.3C18.1209 14.3 16.7983 14.8478 15.8231 15.823C14.8479 16.7982 14.3 18.1209 14.3 19.5C14.3 20.8791 14.8479 22.2018 15.8231 23.1769C16.7983 24.1521 18.1209 24.7 19.5 24.7C20.8791 24.7 22.2018 24.1521 23.177 23.1769C24.1522 22.2018 24.7 20.8791 24.7 19.5C24.7 18.1209 24.1522 16.7982 23.177 15.823C22.2018 14.8478 20.8791 14.3 19.5 14.3Z" fill="#0D267D"/>
</g>
</svg>
