<svg width="38" height="38" viewBox="0 0 38 38" fill="none" xmlns="http://www.w3.org/2000/svg">
<path d="M28.1178 22.7748C27.7185 23.1618 27.535 23.7214 27.626 24.2702L28.9965 31.8552C29.1121 32.4981 28.8408 33.1487 28.3028 33.5202C27.7755 33.9056 27.0741 33.9519 26.499 33.6436L19.671 30.0823C19.4336 29.9559 19.1699 29.8881 18.9001 29.8804H18.4824C18.3374 29.9019 18.1956 29.9482 18.0661 30.0191L11.2365 33.5973C10.8989 33.7669 10.5166 33.827 10.1419 33.7669C9.22927 33.5942 8.62031 32.7247 8.76986 31.8074L10.1419 24.2224C10.2329 23.669 10.0494 23.1063 9.65015 22.7131L4.08319 17.3173C3.61761 16.8656 3.45573 16.1873 3.66848 15.5752C3.87506 14.9647 4.40231 14.5192 5.03902 14.419L12.7011 13.3074C13.2839 13.2473 13.7957 12.8927 14.0578 12.3686L17.434 5.44647C17.5142 5.29231 17.6175 5.15047 17.7424 5.03022L17.8811 4.92231C17.9536 4.84214 18.0368 4.77585 18.1293 4.72189L18.2974 4.66022L18.5594 4.55231H19.2085C19.7881 4.61243 20.2984 4.95931 20.5651 5.47731L23.9861 12.3686C24.2328 12.8727 24.7122 13.2226 25.2657 13.3074L32.9278 14.419C33.5753 14.5115 34.1164 14.9586 34.3307 15.5752C34.5326 16.1934 34.3584 16.8718 33.8836 17.3173L28.1178 22.7748Z" fill="white"/>
</svg>
