<svg width="38" height="38" viewBox="0 0 38 38" fill="none" xmlns="http://www.w3.org/2000/svg">
<path d="M4.84826 30.0434V9.50161C4.84817 9.18456 4.94564 8.87517 5.12746 8.61544C5.30927 8.3557 5.56661 8.15821 5.86454 8.04979L20.8013 2.61935C20.918 2.57689 21.0432 2.56318 21.1663 2.5794C21.2894 2.59562 21.4068 2.64128 21.5085 2.71252C21.6102 2.78375 21.6932 2.87846 21.7505 2.9886C21.8078 3.09875 21.8377 3.2211 21.8377 3.34526V10.9951L31.5927 14.2463C31.9004 14.3488 32.168 14.5455 32.3576 14.8086C32.5472 15.0716 32.6492 15.3877 32.6491 15.712V30.0434H35.7381V33.1323H1.75928V30.0434H4.84826ZM7.93724 30.0434H18.7487V6.65202L7.93724 10.5843V30.0434ZM29.5601 30.0434V16.8256L21.8377 14.2509V30.0434H29.5601Z" fill="white"/>
</svg>
