<svg width="38" height="38" viewBox="0 0 38 38" fill="none" xmlns="http://www.w3.org/2000/svg">
<path fill-rule="evenodd" clip-rule="evenodd" d="M3.19971 19.1979C3.19971 10.6879 10.091 3.78119 18.6164 3.78119C27.1264 3.78119 34.033 10.6879 34.033 19.1979C34.033 27.7079 27.1264 34.6145 18.6164 34.6145C10.091 34.6145 3.19971 27.7079 3.19971 19.1979ZM11.7097 21.0479C10.6922 21.0479 9.85971 20.2154 9.85971 19.1979C9.85971 18.1804 10.6922 17.3494 11.7097 17.3494C12.7272 17.3494 13.5443 18.1804 13.5443 19.1979C13.5443 20.2154 12.7272 21.0479 11.7097 21.0479ZM16.7664 19.1979C16.7664 20.2154 17.5989 21.0479 18.6164 21.0479C19.6339 21.0479 20.451 20.2154 20.451 19.1979C20.451 18.1804 19.6339 17.3494 18.6164 17.3494C17.5989 17.3494 16.7664 18.1804 16.7664 19.1979ZM23.673 19.1979C23.673 20.2154 24.4901 21.0479 25.523 21.0479C26.5405 21.0479 27.3576 20.2154 27.3576 19.1979C27.3576 18.1804 26.5405 17.3494 25.523 17.3494C24.4901 17.3494 23.673 18.1804 23.673 19.1979Z" fill="white"/>
</svg>
