<svg width="20" height="20" viewBox="0 0 20 20" fill="none" xmlns="http://www.w3.org/2000/svg">
<path d="M18.1295 17.1721L15.265 14.3715L15.1978 14.2694C15.073 14.1452 14.9023 14.0751 14.7241 14.0751C14.546 14.0751 14.3753 14.1452 14.2505 14.2694C11.8161 16.5028 8.06496 16.6242 5.48484 14.5531C2.90472 12.482 2.29623 8.86116 4.06291 6.09183C5.82959 3.3225 9.42323 2.26406 12.4605 3.61847C15.4979 4.97288 17.0363 8.31985 16.0557 11.4397C15.9851 11.6651 16.0428 11.9102 16.2071 12.0827C16.3715 12.2551 16.6174 12.3288 16.8524 12.2759C17.0873 12.223 17.2756 12.0516 17.3462 11.8262C18.5185 8.12389 16.748 4.13965 13.1799 2.4509C9.61191 0.762155 5.3172 1.87571 3.07405 5.0712C0.830896 8.2667 1.31249 12.5851 4.20728 15.2329C7.10207 17.8807 11.5413 18.0633 14.6533 15.6624L17.1895 18.1421C17.4515 18.3971 17.875 18.3971 18.1369 18.1421C18.3986 17.8835 18.3986 17.4672 18.1369 17.2086L18.1295 17.1721Z" fill="#667085"/>
</svg>
