<svg width="25" height="25" viewBox="0 0 25 25" fill="none" xmlns="http://www.w3.org/2000/svg">
<path d="M18.665 14.917C18.3953 15.1784 18.2713 15.5566 18.3328 15.9274L19.2588 21.0524C19.3369 21.4868 19.1536 21.9264 18.79 22.1774C18.4338 22.4378 17.9598 22.4691 17.5713 22.2607L12.9578 19.8545C12.7973 19.7691 12.6192 19.7232 12.4369 19.718H12.1546C12.0567 19.7326 11.9609 19.7639 11.8734 19.8118L7.2588 22.2295C7.03067 22.3441 6.77234 22.3847 6.51922 22.3441C5.90255 22.2274 5.49109 21.6399 5.59213 21.0201L6.51922 15.8951C6.58067 15.5212 6.45672 15.141 6.18692 14.8753L2.42546 11.2295C2.11088 10.9243 2.00151 10.466 2.14526 10.0524C2.28484 9.63991 2.64109 9.33887 3.0713 9.27116L8.24838 8.52012C8.64213 8.47949 8.98797 8.23991 9.16505 7.88574L11.4463 3.20866C11.5005 3.10449 11.5703 3.00866 11.6546 2.92741L11.7484 2.85449C11.7973 2.80033 11.8536 2.75553 11.9161 2.71908L12.0296 2.67741L12.2067 2.60449H12.6453C13.0369 2.64512 13.3817 2.87949 13.5619 3.22949L15.8734 7.88574C16.04 8.22637 16.364 8.46283 16.738 8.52012L21.915 9.27116C22.3525 9.33366 22.7182 9.63574 22.863 10.0524C22.9994 10.4701 22.8817 10.9284 22.5609 11.2295L18.665 14.917Z" fill="black"/>
</svg>
