<svg width="258" height="245" viewBox="0 0 258 245" fill="none" xmlns="http://www.w3.org/2000/svg">
<path opacity="0.75" d="M128.167 177.44C158.566 177.44 183.209 152.832 183.209 122.477C183.209 92.1214 158.566 67.5137 128.167 67.5137C97.7686 67.5137 73.1257 92.1214 73.1257 122.477C73.1257 152.832 97.7686 177.44 128.167 177.44Z" stroke="url(#paint0_linear_98_5661)" stroke-width="0.633663" stroke-linecap="round" stroke-linejoin="round" stroke-dasharray="1.9 3.17"/>
<path opacity="0.5" d="M127.853 196.912C168.847 196.912 202.08 163.727 202.08 122.791C202.08 81.8548 168.847 48.6694 127.853 48.6694C86.858 48.6694 53.6252 81.8548 53.6252 122.791C53.6252 163.727 86.858 196.912 127.853 196.912Z" stroke="url(#paint1_linear_98_5661)" stroke-width="0.633663" stroke-linecap="round" stroke-linejoin="round" stroke-dasharray="1.9 3.17"/>
<path opacity="0.2" d="M128.167 214.5C178.716 214.5 219.693 173.441 219.693 122.791C219.693 72.1409 178.716 31.0811 128.167 31.0811C77.6187 31.0811 36.6411 72.1409 36.6411 122.791C36.6411 173.441 77.6187 214.5 128.167 214.5Z" stroke="url(#paint2_linear_98_5661)" stroke-width="0.633663" stroke-linecap="round" stroke-linejoin="round" stroke-dasharray="1.9 3.17"/>
<path opacity="0.1" fill-rule="evenodd" clip-rule="evenodd" d="M232.004 41.5693C233.911 41.5693 235.457 43.0406 235.457 44.8554C235.457 46.6703 233.911 48.1416 232.004 48.1416C230.096 48.1416 228.55 46.6703 228.55 44.8554C228.55 43.0406 230.096 41.5693 232.004 41.5693Z" fill="url(#paint3_linear_98_5661)"/>
<path opacity="0.1" fill-rule="evenodd" clip-rule="evenodd" d="M191.958 116.35C193.865 116.35 195.411 117.821 195.411 119.636C195.411 121.451 193.865 122.922 191.958 122.922C190.051 122.922 188.505 121.451 188.505 119.636C188.505 117.821 190.051 116.35 191.958 116.35Z" fill="url(#paint4_linear_98_5661)"/>
<path fill-rule="evenodd" clip-rule="evenodd" d="M159.791 51.0972C161.698 51.0972 163.244 52.5684 163.244 54.3833C163.244 56.1982 161.698 57.6694 159.791 57.6694C157.884 57.6694 156.338 56.1982 156.338 54.3833C156.338 52.5684 157.884 51.0972 159.791 51.0972Z" fill="url(#paint5_linear_98_5661)"/>
<path fill-rule="evenodd" clip-rule="evenodd" d="M54.8834 105.203C56.273 105.203 57.3996 106.275 57.3996 107.597C57.3996 108.919 56.273 109.991 54.8834 109.991C53.4937 109.991 52.3672 108.919 52.3672 107.597C52.3672 106.275 53.4937 105.203 54.8834 105.203Z" fill="url(#paint6_linear_98_5661)"/>
<path fill-rule="evenodd" clip-rule="evenodd" d="M214.032 151.058C215.421 151.058 216.548 152.13 216.548 153.452C216.548 154.774 215.421 155.846 214.032 155.846C212.642 155.846 211.516 154.774 211.516 153.452C211.516 152.13 212.642 151.058 214.032 151.058Z" fill="url(#paint7_linear_98_5661)"/>
<path fill-rule="evenodd" clip-rule="evenodd" d="M176.918 95.1523C178.308 95.1523 179.434 96.2244 179.434 97.5468C179.434 98.8692 178.308 99.9412 176.918 99.9412C175.529 99.9412 174.402 98.8692 174.402 97.5468C174.402 96.2244 175.529 95.1523 176.918 95.1523Z" fill="url(#paint8_linear_98_5661)"/>
<path fill-rule="evenodd" clip-rule="evenodd" d="M107.723 68.77C109.113 68.77 110.239 69.842 110.239 71.1644C110.239 72.4868 109.113 73.5588 107.723 73.5588C106.334 73.5588 105.207 72.4868 105.207 71.1644C105.207 69.842 106.334 68.77 107.723 68.77Z" fill="url(#paint9_linear_98_5661)"/>
<path fill-rule="evenodd" clip-rule="evenodd" d="M140.434 174.299C141.823 174.299 142.95 175.371 142.95 176.694C142.95 178.016 141.823 179.088 140.434 179.088C139.044 179.088 137.917 178.016 137.917 176.694C137.917 175.371 139.044 174.299 140.434 174.299Z" fill="url(#paint10_linear_98_5661)"/>
<path fill-rule="evenodd" clip-rule="evenodd" d="M183.312 170.48C184.377 170.48 185.241 171.302 185.241 172.316C185.241 173.331 184.377 174.153 183.312 174.153C182.246 174.153 181.382 173.331 181.382 172.316C181.382 171.302 182.246 170.48 183.312 170.48Z" fill="url(#paint11_linear_98_5661)"/>
<path fill-rule="evenodd" clip-rule="evenodd" d="M233.527 77.1455C234.593 77.1455 235.457 77.9677 235.457 78.9819C235.457 79.9961 234.593 80.8182 233.527 80.8182C232.462 80.8182 231.598 79.9961 231.598 78.9819C231.598 77.9677 232.462 77.1455 233.527 77.1455Z" fill="url(#paint12_linear_98_5661)"/>
<path fill-rule="evenodd" clip-rule="evenodd" d="M119.672 10.5776C121.804 10.5776 123.532 12.222 123.532 14.2503C123.532 16.2787 121.804 17.9231 119.672 17.9231C117.541 17.9231 115.813 16.2787 115.813 14.2503C115.813 12.222 117.541 10.5776 119.672 10.5776Z" fill="url(#paint13_linear_98_5661)"/>
<path fill-rule="evenodd" clip-rule="evenodd" d="M134.146 20.2251C135.211 20.2251 136.075 21.0473 136.075 22.0615C136.075 23.0756 135.211 23.8978 134.146 23.8978C133.08 23.8978 132.216 23.0756 132.216 22.0615C132.216 21.0473 133.08 20.2251 134.146 20.2251Z" fill="url(#paint14_linear_98_5661)"/>
<path fill-rule="evenodd" clip-rule="evenodd" d="M201.686 0.930176C202.752 0.930176 203.616 1.75234 203.616 2.76653C203.616 3.78072 202.752 4.60289 201.686 4.60289C200.621 4.60289 199.757 3.78072 199.757 2.76653C199.757 1.75234 200.621 0.930176 201.686 0.930176Z" fill="url(#paint15_linear_98_5661)"/>
<path fill-rule="evenodd" clip-rule="evenodd" d="M246.071 126.348C247.136 126.348 248 127.17 248 128.184C248 129.198 247.136 130.02 246.071 130.02C245.005 130.02 244.141 129.198 244.141 128.184C244.141 127.17 245.005 126.348 246.071 126.348Z" fill="url(#paint16_linear_98_5661)"/>
<path fill-rule="evenodd" clip-rule="evenodd" d="M115.813 197.739C116.879 197.739 117.743 198.561 117.743 199.576C117.743 200.59 116.879 201.412 115.813 201.412C114.747 201.412 113.883 200.59 113.883 199.576C113.883 198.561 114.747 197.739 115.813 197.739Z" fill="url(#paint17_linear_98_5661)"/>
<path opacity="0.1" fill-rule="evenodd" clip-rule="evenodd" d="M146.689 221.858C148.82 221.858 150.548 223.502 150.548 225.531C150.548 227.559 148.82 229.203 146.689 229.203C144.557 229.203 142.829 227.559 142.829 225.531C142.829 223.502 144.557 221.858 146.689 221.858Z" fill="url(#paint18_linear_98_5661)"/>
<path fill-rule="evenodd" clip-rule="evenodd" d="M48.2721 6.71875C49.3379 6.71875 50.2019 7.54091 50.2019 8.55511C50.2019 9.5693 49.3379 10.3915 48.2721 10.3915C47.2064 10.3915 46.3424 9.5693 46.3424 8.55511C46.3424 7.54091 47.2064 6.71875 48.2721 6.71875Z" fill="url(#paint19_linear_98_5661)"/>
<path opacity="0.1" fill-rule="evenodd" clip-rule="evenodd" d="M9.27109 54.9487C11.1783 54.9487 12.7243 56.42 12.7243 58.2348C12.7243 60.0497 11.1783 61.5209 9.27109 61.5209C7.36393 61.5209 5.81787 60.0497 5.81787 58.2348C5.81787 56.42 7.36393 54.9487 9.27109 54.9487Z" fill="url(#paint20_linear_98_5661)"/>
<path opacity="0.1" fill-rule="evenodd" clip-rule="evenodd" d="M2.73564 148.58C0.943696 147.927 -0.00695612 146.016 0.612286 144.312C1.23153 142.607 3.18617 141.756 4.97811 142.409C6.77005 143.062 7.7207 144.973 7.10146 146.677C6.48222 148.381 4.52758 149.233 2.73564 148.58Z" fill="url(#paint21_linear_98_5661)"/>
<path opacity="0.1" fill-rule="evenodd" clip-rule="evenodd" d="M253.469 144.843C251.677 144.19 250.727 142.279 251.346 140.575C251.965 138.871 253.92 138.019 255.712 138.672C257.504 139.325 258.454 141.236 257.835 142.94C257.216 144.644 255.261 145.496 253.469 144.843Z" fill="url(#paint22_linear_98_5661)"/>
<path opacity="0.1" fill-rule="evenodd" clip-rule="evenodd" d="M54.1993 86.1434C52.4073 85.4901 51.4567 83.5791 52.0759 81.875C52.6952 80.171 54.6498 79.3191 56.4417 79.9724C58.2337 80.6256 59.1843 82.5366 58.5651 84.2407C57.9458 85.9448 55.9912 86.7966 54.1993 86.1434Z" fill="url(#paint23_linear_98_5661)"/>
<path fill-rule="evenodd" clip-rule="evenodd" d="M82.6936 156.768C80.9017 156.115 79.9511 154.204 80.5703 152.5C81.1895 150.795 83.1442 149.944 84.9361 150.597C86.7281 151.25 87.6787 153.161 87.0595 154.865C86.4402 156.569 84.4856 157.421 82.6936 156.768Z" fill="url(#paint24_linear_98_5661)"/>
<path fill-rule="evenodd" clip-rule="evenodd" d="M91.56 39.9855C90.5586 39.6204 90.0274 38.5525 90.3734 37.6003C90.7195 36.648 91.8118 36.172 92.8132 36.537C93.8145 36.9021 94.3458 37.97 93.9997 38.9222C93.6537 39.8745 92.5614 40.3506 91.56 39.9855Z" fill="url(#paint25_linear_98_5661)"/>
<path fill-rule="evenodd" clip-rule="evenodd" d="M13.4511 114.646C12.4498 114.281 11.9185 113.213 12.2646 112.261C12.6106 111.309 13.7029 110.833 14.7043 111.198C15.7057 111.563 16.2369 112.631 15.8909 113.583C15.5448 114.535 14.4525 115.011 13.4511 114.646Z" fill="url(#paint26_linear_98_5661)"/>
<path fill-rule="evenodd" clip-rule="evenodd" d="M97.6744 216.138C95.6716 215.408 94.6091 213.272 95.3012 211.368C95.9933 209.463 98.1779 208.511 100.181 209.241C102.183 209.971 103.246 212.107 102.554 214.011C101.862 215.916 99.6771 216.868 97.6744 216.138Z" fill="url(#paint27_linear_98_5661)"/>
<path fill-rule="evenodd" clip-rule="evenodd" d="M87.3725 202.124C86.3711 201.759 85.8399 200.691 86.1859 199.738C86.532 198.786 87.6243 198.31 88.6257 198.675C89.627 199.04 90.1583 200.108 89.8122 201.06C89.4662 202.013 88.3739 202.489 87.3725 202.124Z" fill="url(#paint28_linear_98_5661)"/>
<path fill-rule="evenodd" clip-rule="evenodd" d="M17.3388 197.126C16.3374 196.761 15.8062 195.693 16.1522 194.74C16.4983 193.788 17.5906 193.312 18.592 193.677C19.5933 194.042 20.1246 195.11 19.7786 196.062C19.4325 197.015 18.3402 197.491 17.3388 197.126Z" fill="url(#paint29_linear_98_5661)"/>
<path fill-rule="evenodd" clip-rule="evenodd" d="M18.4676 64.1427C17.4662 63.7777 16.935 62.7098 17.281 61.7575C17.6271 60.8052 18.7194 60.3292 19.7207 60.6942C20.7221 61.0593 21.2534 62.1272 20.9073 63.0795C20.5613 64.0317 19.469 64.5078 18.4676 64.1427Z" fill="url(#paint30_linear_98_5661)"/>
<path fill-rule="evenodd" clip-rule="evenodd" d="M165.203 41.6803C164.201 41.3153 163.67 40.2474 164.016 39.2951C164.362 38.3428 165.454 37.8668 166.456 38.2318C167.457 38.5969 167.988 39.6648 167.642 40.6171C167.296 41.5693 166.204 42.0454 165.203 41.6803Z" fill="url(#paint31_linear_98_5661)"/>
<path opacity="0.1" fill-rule="evenodd" clip-rule="evenodd" d="M144.434 8.45927C142.431 7.72917 141.369 5.59337 142.061 3.68882C142.753 1.78427 144.938 0.832203 146.941 1.56231C148.943 2.29242 150.006 4.42822 149.314 6.33277C148.622 8.23732 146.437 9.18938 144.434 8.45927Z" fill="url(#paint32_linear_98_5661)"/>
<path fill-rule="evenodd" clip-rule="evenodd" d="M163.428 244.203C162.426 243.838 161.895 242.77 162.241 241.818C162.587 240.866 163.679 240.39 164.681 240.755C165.682 241.12 166.213 242.188 165.867 243.14C165.521 244.092 164.429 244.568 163.428 244.203Z" fill="url(#paint33_linear_98_5661)"/>
<path opacity="0.1" fill-rule="evenodd" clip-rule="evenodd" d="M216.531 212.257C214.739 211.603 213.789 209.692 214.408 207.988C215.027 206.284 216.982 205.432 218.774 206.086C220.566 206.739 221.516 208.65 220.897 210.354C220.278 212.058 218.323 212.91 216.531 212.257Z" fill="url(#paint34_linear_98_5661)"/>
<path d="M128.796 157.872C148.024 157.872 163.612 142.307 163.612 123.105C163.612 103.904 148.024 88.3379 128.796 88.3379C109.568 88.3379 93.9807 103.904 93.9807 123.105C93.9807 142.307 109.568 157.872 128.796 157.872Z" stroke="url(#paint35_linear_98_5661)" stroke-width="1.26733"/>
<mask id="mask0_98_5661" style="mask-type:alpha" maskUnits="userSpaceOnUse" x="112" y="110" width="35" height="27">
<path d="M123.056 131.072L115.077 123.105L112.36 125.799L123.056 136.479L146.016 113.552L143.318 110.858L123.056 131.072Z" fill="white"/>
</mask>
<g mask="url(#mask0_98_5661)">
<path d="M123.056 131.072L115.077 123.105L112.36 125.799L123.056 136.479L146.016 113.552L143.318 110.858L123.056 131.072Z" fill="url(#paint36_linear_98_5661)"/>
</g>
<defs>
<linearGradient id="paint0_linear_98_5661" x1="183.209" y1="122.477" x2="73.1257" y2="122.477" gradientUnits="userSpaceOnUse">
<stop stop-color="#1B3DFE"/>
<stop offset="0.507198" stop-color="#4D68FE"/>
<stop offset="1" stop-color="#8093FE"/>
</linearGradient>
<linearGradient id="paint1_linear_98_5661" x1="202.08" y1="122.791" x2="53.6252" y2="122.791" gradientUnits="userSpaceOnUse">
<stop stop-color="#1B3DFE"/>
<stop offset="0.507198" stop-color="#4D68FE"/>
<stop offset="1" stop-color="#8093FE"/>
</linearGradient>
<linearGradient id="paint2_linear_98_5661" x1="219.693" y1="122.791" x2="36.6411" y2="122.791" gradientUnits="userSpaceOnUse">
<stop stop-color="#1B3DFE"/>
<stop offset="0.507198" stop-color="#4D68FE"/>
<stop offset="1" stop-color="#8093FE"/>
</linearGradient>
<linearGradient id="paint3_linear_98_5661" x1="235.457" y1="44.8554" x2="228.55" y2="44.8554" gradientUnits="userSpaceOnUse">
<stop stop-color="#1B3DFE"/>
<stop offset="0.507198" stop-color="#4D68FE"/>
<stop offset="1" stop-color="#8093FE"/>
</linearGradient>
<linearGradient id="paint4_linear_98_5661" x1="195.411" y1="119.636" x2="188.505" y2="119.636" gradientUnits="userSpaceOnUse">
<stop stop-color="#1B3DFE"/>
<stop offset="0.507198" stop-color="#4D68FE"/>
<stop offset="1" stop-color="#8093FE"/>
</linearGradient>
<linearGradient id="paint5_linear_98_5661" x1="163.244" y1="54.3833" x2="156.338" y2="54.3833" gradientUnits="userSpaceOnUse">
<stop stop-color="#1B3DFE"/>
<stop offset="0.507198" stop-color="#4D68FE"/>
<stop offset="1" stop-color="#8093FE"/>
</linearGradient>
<linearGradient id="paint6_linear_98_5661" x1="57.3995" y1="107.597" x2="52.3672" y2="107.597" gradientUnits="userSpaceOnUse">
<stop stop-color="#1B3DFE"/>
<stop offset="0.507198" stop-color="#4D68FE"/>
<stop offset="1" stop-color="#8093FE"/>
</linearGradient>
<linearGradient id="paint7_linear_98_5661" x1="216.548" y1="153.452" x2="211.516" y2="153.452" gradientUnits="userSpaceOnUse">
<stop stop-color="#1B3DFE"/>
<stop offset="0.507198" stop-color="#4D68FE"/>
<stop offset="1" stop-color="#8093FE"/>
</linearGradient>
<linearGradient id="paint8_linear_98_5661" x1="179.434" y1="97.5468" x2="174.402" y2="97.5468" gradientUnits="userSpaceOnUse">
<stop stop-color="#1B3DFE"/>
<stop offset="0.507198" stop-color="#4D68FE"/>
<stop offset="1" stop-color="#8093FE"/>
</linearGradient>
<linearGradient id="paint9_linear_98_5661" x1="110.239" y1="71.1644" x2="105.207" y2="71.1644" gradientUnits="userSpaceOnUse">
<stop stop-color="#1B3DFE"/>
<stop offset="0.507198" stop-color="#4D68FE"/>
<stop offset="1" stop-color="#8093FE"/>
</linearGradient>
<linearGradient id="paint10_linear_98_5661" x1="142.95" y1="176.694" x2="137.917" y2="176.694" gradientUnits="userSpaceOnUse">
<stop stop-color="#1B3DFE"/>
<stop offset="0.507198" stop-color="#4D68FE"/>
<stop offset="1" stop-color="#8093FE"/>
</linearGradient>
<linearGradient id="paint11_linear_98_5661" x1="185.241" y1="172.316" x2="181.382" y2="172.316" gradientUnits="userSpaceOnUse">
<stop stop-color="#1B3DFE"/>
<stop offset="0.507198" stop-color="#4D68FE"/>
<stop offset="1" stop-color="#8093FE"/>
</linearGradient>
<linearGradient id="paint12_linear_98_5661" x1="235.457" y1="78.9819" x2="231.598" y2="78.9819" gradientUnits="userSpaceOnUse">
<stop stop-color="#1B3DFE"/>
<stop offset="0.507198" stop-color="#4D68FE"/>
<stop offset="1" stop-color="#8093FE"/>
</linearGradient>
<linearGradient id="paint13_linear_98_5661" x1="123.532" y1="14.2503" x2="115.813" y2="14.2503" gradientUnits="userSpaceOnUse">
<stop stop-color="#1B3DFE"/>
<stop offset="0.507198" stop-color="#4D68FE"/>
<stop offset="1" stop-color="#8093FE"/>
</linearGradient>
<linearGradient id="paint14_linear_98_5661" x1="136.075" y1="22.0615" x2="132.216" y2="22.0615" gradientUnits="userSpaceOnUse">
<stop stop-color="#1B3DFE"/>
<stop offset="0.507198" stop-color="#4D68FE"/>
<stop offset="1" stop-color="#8093FE"/>
</linearGradient>
<linearGradient id="paint15_linear_98_5661" x1="203.616" y1="2.76653" x2="199.757" y2="2.76653" gradientUnits="userSpaceOnUse">
<stop stop-color="#1B3DFE"/>
<stop offset="0.507198" stop-color="#4D68FE"/>
<stop offset="1" stop-color="#8093FE"/>
</linearGradient>
<linearGradient id="paint16_linear_98_5661" x1="248" y1="128.184" x2="244.141" y2="128.184" gradientUnits="userSpaceOnUse">
<stop stop-color="#1B3DFE"/>
<stop offset="0.507198" stop-color="#4D68FE"/>
<stop offset="1" stop-color="#8093FE"/>
</linearGradient>
<linearGradient id="paint17_linear_98_5661" x1="117.743" y1="199.576" x2="113.883" y2="199.576" gradientUnits="userSpaceOnUse">
<stop stop-color="#1B3DFE"/>
<stop offset="0.507198" stop-color="#4D68FE"/>
<stop offset="1" stop-color="#8093FE"/>
</linearGradient>
<linearGradient id="paint18_linear_98_5661" x1="150.548" y1="225.531" x2="142.829" y2="225.531" gradientUnits="userSpaceOnUse">
<stop stop-color="#1B3DFE"/>
<stop offset="0.507198" stop-color="#4D68FE"/>
<stop offset="1" stop-color="#8093FE"/>
</linearGradient>
<linearGradient id="paint19_linear_98_5661" x1="50.2019" y1="8.55511" x2="46.3424" y2="8.55511" gradientUnits="userSpaceOnUse">
<stop stop-color="#1B3DFE"/>
<stop offset="0.507198" stop-color="#4D68FE"/>
<stop offset="1" stop-color="#8093FE"/>
</linearGradient>
<linearGradient id="paint20_linear_98_5661" x1="12.7243" y1="58.2348" x2="5.81787" y2="58.2348" gradientUnits="userSpaceOnUse">
<stop stop-color="#1B3DFE"/>
<stop offset="0.507198" stop-color="#4D68FE"/>
<stop offset="1" stop-color="#8093FE"/>
</linearGradient>
<linearGradient id="paint21_linear_98_5661" x1="0.612286" y1="144.312" x2="7.10388" y2="146.671" gradientUnits="userSpaceOnUse">
<stop stop-color="#1B3DFE"/>
<stop offset="0.507198" stop-color="#4D68FE"/>
<stop offset="1" stop-color="#8093FE"/>
</linearGradient>
<linearGradient id="paint22_linear_98_5661" x1="251.346" y1="140.575" x2="257.838" y2="142.934" gradientUnits="userSpaceOnUse">
<stop stop-color="#1B3DFE"/>
<stop offset="0.507198" stop-color="#4D68FE"/>
<stop offset="1" stop-color="#8093FE"/>
</linearGradient>
<linearGradient id="paint23_linear_98_5661" x1="52.0759" y1="81.875" x2="58.5675" y2="84.234" gradientUnits="userSpaceOnUse">
<stop stop-color="#1B3DFE"/>
<stop offset="0.507198" stop-color="#4D68FE"/>
<stop offset="1" stop-color="#8093FE"/>
</linearGradient>
<linearGradient id="paint24_linear_98_5661" x1="80.5703" y1="152.5" x2="87.0619" y2="154.859" gradientUnits="userSpaceOnUse">
<stop stop-color="#1B3DFE"/>
<stop offset="0.507198" stop-color="#4D68FE"/>
<stop offset="1" stop-color="#8093FE"/>
</linearGradient>
<linearGradient id="paint25_linear_98_5661" x1="90.3734" y1="37.6003" x2="94.0011" y2="38.9185" gradientUnits="userSpaceOnUse">
<stop stop-color="#1B3DFE"/>
<stop offset="0.507198" stop-color="#4D68FE"/>
<stop offset="1" stop-color="#8093FE"/>
</linearGradient>
<linearGradient id="paint26_linear_98_5661" x1="12.2646" y1="112.261" x2="15.8922" y2="113.579" gradientUnits="userSpaceOnUse">
<stop stop-color="#1B3DFE"/>
<stop offset="0.507198" stop-color="#4D68FE"/>
<stop offset="1" stop-color="#8093FE"/>
</linearGradient>
<linearGradient id="paint27_linear_98_5661" x1="95.3012" y1="211.368" x2="102.557" y2="214.004" gradientUnits="userSpaceOnUse">
<stop stop-color="#1B3DFE"/>
<stop offset="0.507198" stop-color="#4D68FE"/>
<stop offset="1" stop-color="#8093FE"/>
</linearGradient>
<linearGradient id="paint28_linear_98_5661" x1="86.1859" y1="199.738" x2="89.8136" y2="201.057" gradientUnits="userSpaceOnUse">
<stop stop-color="#1B3DFE"/>
<stop offset="0.507198" stop-color="#4D68FE"/>
<stop offset="1" stop-color="#8093FE"/>
</linearGradient>
<linearGradient id="paint29_linear_98_5661" x1="16.1522" y1="194.74" x2="19.7799" y2="196.059" gradientUnits="userSpaceOnUse">
<stop stop-color="#1B3DFE"/>
<stop offset="0.507198" stop-color="#4D68FE"/>
<stop offset="1" stop-color="#8093FE"/>
</linearGradient>
<linearGradient id="paint30_linear_98_5661" x1="17.281" y1="61.7575" x2="20.9087" y2="63.0758" gradientUnits="userSpaceOnUse">
<stop stop-color="#1B3DFE"/>
<stop offset="0.507198" stop-color="#4D68FE"/>
<stop offset="1" stop-color="#8093FE"/>
</linearGradient>
<linearGradient id="paint31_linear_98_5661" x1="164.016" y1="39.2951" x2="167.644" y2="40.6133" gradientUnits="userSpaceOnUse">
<stop stop-color="#1B3DFE"/>
<stop offset="0.507198" stop-color="#4D68FE"/>
<stop offset="1" stop-color="#8093FE"/>
</linearGradient>
<linearGradient id="paint32_linear_98_5661" x1="142.061" y1="3.68882" x2="149.316" y2="6.32533" gradientUnits="userSpaceOnUse">
<stop stop-color="#1B3DFE"/>
<stop offset="0.507198" stop-color="#4D68FE"/>
<stop offset="1" stop-color="#8093FE"/>
</linearGradient>
<linearGradient id="paint33_linear_98_5661" x1="162.241" y1="241.818" x2="165.869" y2="243.136" gradientUnits="userSpaceOnUse">
<stop stop-color="#1B3DFE"/>
<stop offset="0.507198" stop-color="#4D68FE"/>
<stop offset="1" stop-color="#8093FE"/>
</linearGradient>
<linearGradient id="paint34_linear_98_5661" x1="214.408" y1="207.988" x2="220.9" y2="210.347" gradientUnits="userSpaceOnUse">
<stop stop-color="#1B3DFE"/>
<stop offset="0.507198" stop-color="#4D68FE"/>
<stop offset="1" stop-color="#8093FE"/>
</linearGradient>
<linearGradient id="paint35_linear_98_5661" x1="163.612" y1="123.105" x2="93.9807" y2="123.105" gradientUnits="userSpaceOnUse">
<stop stop-color="#1B3DFE"/>
<stop offset="0.507198" stop-color="#4D68FE"/>
<stop offset="1" stop-color="#8093FE"/>
</linearGradient>
<linearGradient id="paint36_linear_98_5661" x1="146.016" y1="123.669" x2="112.36" y2="123.669" gradientUnits="userSpaceOnUse">
<stop stop-color="#1B3DFE"/>
<stop offset="0.507198" stop-color="#4D68FE"/>
<stop offset="1" stop-color="#8093FE"/>
</linearGradient>
</defs>
</svg>
