<svg width="40" height="40" viewBox="0 0 40 40" fill="none" xmlns="http://www.w3.org/2000/svg">
<path d="M14.56 35.9992C14.26 36.0392 14.04 35.9592 13.74 35.8592C12.62 35.4792 12.08 34.2792 12.42 33.1592C12.76 32.0592 14.42 27.0792 14.42 25.9992C14.42 24.9392 12.92 23.9992 11.72 23.9992H5.72C4.52 23.9992 3.72 23.1992 3.72 21.9992C3.72 20.7992 7.72 7.99925 7.72 7.99925C8.06 7.21925 8.82 5.99925 9.72 5.99925H28V23.9992H23.72C22.9 24.8192 17.12 33.4192 16.56 34.5392C16.14 35.3592 15.36 35.8992 14.56 35.9992ZM36 23.9992H32V5.99925H36V23.9992Z" fill="black"/>
</svg>
