<svg width="33" height="31" viewBox="0 0 33 31" fill="none" xmlns="http://www.w3.org/2000/svg">
<path d="M21.44 1.00075C21.74 0.960754 21.96 1.04075 22.26 1.14075C23.38 1.52075 23.92 2.72075 23.58 3.84075C23.24 4.94075 21.58 9.92075 21.58 11.0008C21.58 12.0608 23.08 13.0008 24.28 13.0008H30.28C31.48 13.0008 32.28 13.8008 32.28 15.0008C32.28 16.2008 28.28 29.0008 28.28 29.0008C27.94 29.7808 27.18 31.0008 26.28 31.0008H8V13.0008H12.28C13.1 12.1808 18.88 3.58075 19.44 2.46075C19.86 1.64075 20.64 1.10075 21.44 1.00075ZM0 13.0008H4V31.0008H0V13.0008Z" fill="black"/>
</svg>
