<svg width="40" height="39" viewBox="0 0 40 39" fill="none" xmlns="http://www.w3.org/2000/svg">
<g id="Twitter">
<path id="Vector" d="M37.3333 9.01808C36.0573 9.57058 34.6866 9.94239 33.248 10.1101C34.7173 9.25208 35.844 7.89359 36.3746 6.27379C35.0013 7.06809 33.4786 7.64528 31.8573 7.95728C30.5599 6.60918 28.7119 5.76678 26.6666 5.76678C22.7386 5.76678 19.5546 8.87249 19.5546 12.701C19.5546 13.2444 19.6186 13.7748 19.7386 14.2805C13.828 13.9919 8.58795 11.2307 5.07862 7.03428C4.46795 8.05868 4.11728 9.24948 4.11728 10.5222C4.11728 12.9272 5.37195 15.0501 7.27995 16.2929C6.11462 16.2565 5.01728 15.9445 4.05862 15.4258C4.05862 15.4557 4.05862 15.483 4.05862 15.5129C4.05862 18.8734 6.50928 21.6762 9.76395 22.3119C9.16795 22.4705 8.53862 22.555 7.88928 22.555C7.43195 22.555 6.98528 22.5108 6.55195 22.4315C7.45728 25.1862 10.084 27.1921 13.196 27.248C10.7626 29.1083 7.69595 30.2172 4.36262 30.2172C3.78928 30.2172 3.22262 30.1847 2.66528 30.1197C5.81328 32.0866 9.55062 33.2345 13.568 33.2345C26.6506 33.2345 33.8026 22.6681 33.8026 13.5044C33.8026 13.2041 33.7959 12.9051 33.7826 12.6074C35.1733 11.6285 36.38 10.4078 37.3333 9.01808Z" fill="#0D267D"/>
</g>
</svg>
