<svg width="505" height="330" viewBox="0 0 505 330" fill="none" xmlns="http://www.w3.org/2000/svg">
<rect width="505" height="330" rx="16" fill="white"/>
<path d="M52.6481 88.5V68.9H59.9001C61.4681 68.9 62.7655 69.1613 63.7921 69.684C64.8188 70.2067 65.5841 70.9253 66.0881 71.84C66.5921 72.7547 66.8441 73.7813 66.8441 74.92C66.8441 76.0027 66.6015 77.0013 66.1161 77.916C65.6308 78.812 64.8748 79.54 63.8481 80.1C62.8215 80.6413 61.5055 80.912 59.9001 80.912H56.2321V88.5H52.6481ZM56.2321 78H59.6761C60.9268 78 61.8228 77.7293 62.3641 77.188C62.9241 76.628 63.2041 75.872 63.2041 74.92C63.2041 73.9493 62.9241 73.1933 62.3641 72.652C61.8228 72.092 60.9268 71.812 59.6761 71.812H56.2321V78ZM69.572 88.5V68.34H73.156V88.5H69.572ZM83.566 88.836C82.166 88.836 80.9247 88.5373 79.842 87.94C78.7594 87.3427 77.91 86.5027 77.294 85.42C76.678 84.3373 76.37 83.0867 76.37 81.668C76.37 80.2307 76.6687 78.952 77.266 77.832C77.882 76.712 78.722 75.844 79.786 75.228C80.8687 74.5933 82.138 74.276 83.594 74.276C84.9567 74.276 86.1607 74.5747 87.206 75.172C88.2514 75.7693 89.0634 76.5907 89.642 77.636C90.2394 78.6627 90.538 79.8107 90.538 81.08C90.538 81.2853 90.5287 81.5 90.51 81.724C90.51 81.948 90.5007 82.1813 90.482 82.424H79.926C80.0007 83.5067 80.374 84.356 81.046 84.972C81.7367 85.588 82.5674 85.896 83.538 85.896C84.266 85.896 84.8727 85.7373 85.358 85.42C85.862 85.084 86.2354 84.6547 86.478 84.132H90.118C89.8567 85.0093 89.418 85.812 88.802 86.54C88.2047 87.2493 87.458 87.8093 86.562 88.22C85.6847 88.6307 84.686 88.836 83.566 88.836ZM83.594 77.188C82.7167 77.188 81.942 77.44 81.27 77.944C80.598 78.4293 80.1687 79.176 79.982 80.184H86.898C86.842 79.2693 86.506 78.5413 85.89 78C85.274 77.4587 84.5087 77.188 83.594 77.188ZM98.3404 88.836C97.1458 88.836 96.1658 88.6493 95.4004 88.276C94.6351 87.884 94.0658 87.3707 93.6924 86.736C93.3191 86.1013 93.1324 85.4013 93.1324 84.636C93.1324 83.348 93.6364 82.3027 94.6444 81.5C95.6524 80.6973 97.1644 80.296 99.1804 80.296H102.708V79.96C102.708 79.008 102.438 78.308 101.896 77.86C101.355 77.412 100.683 77.188 99.8804 77.188C99.1524 77.188 98.5178 77.3653 97.9764 77.72C97.4351 78.056 97.0991 78.56 96.9684 79.232H93.4684C93.5618 78.224 93.8978 77.3467 94.4764 76.6C95.0738 75.8533 95.8391 75.284 96.7724 74.892C97.7058 74.4813 98.7511 74.276 99.9084 74.276C101.887 74.276 103.446 74.7707 104.584 75.76C105.723 76.7493 106.292 78.1493 106.292 79.96V88.5H103.24L102.904 86.26C102.494 87.0067 101.915 87.6227 101.168 88.108C100.44 88.5933 99.4978 88.836 98.3404 88.836ZM99.1524 86.036C100.179 86.036 100.972 85.7 101.532 85.028C102.111 84.356 102.475 83.5253 102.624 82.536H99.5724C98.6204 82.536 97.9391 82.7133 97.5284 83.068C97.1178 83.404 96.9124 83.824 96.9124 84.328C96.9124 84.8693 97.1178 85.2893 97.5284 85.588C97.9391 85.8867 98.4804 86.036 99.1524 86.036ZM115.453 88.836C114.221 88.836 113.138 88.64 112.205 88.248C111.271 87.8373 110.525 87.2773 109.965 86.568C109.405 85.8587 109.069 85.0373 108.957 84.104H112.569C112.681 84.6453 112.979 85.112 113.465 85.504C113.969 85.8773 114.613 86.064 115.397 86.064C116.181 86.064 116.75 85.9053 117.105 85.588C117.478 85.2707 117.665 84.9067 117.665 84.496C117.665 83.8987 117.403 83.4973 116.881 83.292C116.358 83.068 115.63 82.8533 114.697 82.648C114.099 82.5173 113.493 82.3587 112.877 82.172C112.261 81.9853 111.691 81.752 111.169 81.472C110.665 81.1733 110.254 80.8 109.937 80.352C109.619 79.8853 109.461 79.316 109.461 78.644C109.461 77.412 109.946 76.376 110.917 75.536C111.906 74.696 113.287 74.276 115.061 74.276C116.703 74.276 118.01 74.6587 118.981 75.424C119.97 76.1893 120.558 77.244 120.745 78.588H117.357C117.151 77.5613 116.377 77.048 115.033 77.048C114.361 77.048 113.838 77.1787 113.465 77.44C113.11 77.7013 112.933 78.028 112.933 78.42C112.933 78.8307 113.203 79.1573 113.745 79.4C114.286 79.6427 115.005 79.8667 115.901 80.072C116.871 80.296 117.758 80.548 118.561 80.828C119.382 81.0893 120.035 81.4907 120.521 82.032C121.006 82.5547 121.249 83.3107 121.249 84.3C121.267 85.1587 121.043 85.9333 120.577 86.624C120.11 87.3147 119.438 87.856 118.561 88.248C117.683 88.64 116.647 88.836 115.453 88.836ZM131.172 88.836C129.772 88.836 128.53 88.5373 127.448 87.94C126.365 87.3427 125.516 86.5027 124.9 85.42C124.284 84.3373 123.976 83.0867 123.976 81.668C123.976 80.2307 124.274 78.952 124.872 77.832C125.488 76.712 126.328 75.844 127.392 75.228C128.474 74.5933 129.744 74.276 131.2 74.276C132.562 74.276 133.766 74.5747 134.812 75.172C135.857 75.7693 136.669 76.5907 137.248 77.636C137.845 78.6627 138.144 79.8107 138.144 81.08C138.144 81.2853 138.134 81.5 138.116 81.724C138.116 81.948 138.106 82.1813 138.088 82.424H127.532C127.606 83.5067 127.98 84.356 128.652 84.972C129.342 85.588 130.173 85.896 131.144 85.896C131.872 85.896 132.478 85.7373 132.964 85.42C133.468 85.084 133.841 84.6547 134.084 84.132H137.724C137.462 85.0093 137.024 85.812 136.408 86.54C135.81 87.2493 135.064 87.8093 134.168 88.22C133.29 88.6307 132.292 88.836 131.172 88.836ZM131.2 77.188C130.322 77.188 129.548 77.44 128.876 77.944C128.204 78.4293 127.774 79.176 127.588 80.184H134.504C134.448 79.2693 134.112 78.5413 133.496 78C132.88 77.4587 132.114 77.188 131.2 77.188ZM154.578 88.836C153.178 88.836 151.936 88.5373 150.854 87.94C149.771 87.3427 148.922 86.5027 148.306 85.42C147.69 84.3373 147.382 83.0867 147.382 81.668C147.382 80.2307 147.68 78.952 148.278 77.832C148.894 76.712 149.734 75.844 150.798 75.228C151.88 74.5933 153.15 74.276 154.606 74.276C155.968 74.276 157.172 74.5747 158.218 75.172C159.263 75.7693 160.075 76.5907 160.654 77.636C161.251 78.6627 161.55 79.8107 161.55 81.08C161.55 81.2853 161.54 81.5 161.522 81.724C161.522 81.948 161.512 82.1813 161.494 82.424H150.938C151.012 83.5067 151.386 84.356 152.058 84.972C152.748 85.588 153.579 85.896 154.55 85.896C155.278 85.896 155.884 85.7373 156.37 85.42C156.874 85.084 157.247 84.6547 157.49 84.132H161.13C160.868 85.0093 160.43 85.812 159.814 86.54C159.216 87.2493 158.47 87.8093 157.574 88.22C156.696 88.6307 155.698 88.836 154.578 88.836ZM154.606 77.188C153.728 77.188 152.954 77.44 152.282 77.944C151.61 78.4293 151.18 79.176 150.994 80.184H157.91C157.854 79.2693 157.518 78.5413 156.902 78C156.286 77.4587 155.52 77.188 154.606 77.188ZM164.564 88.5V74.612H167.728L168.008 76.964C168.437 76.1427 169.053 75.4893 169.856 75.004C170.677 74.5187 171.639 74.276 172.74 74.276C174.457 74.276 175.792 74.8173 176.744 75.9C177.696 76.9827 178.172 78.5693 178.172 80.66V88.5H174.588V80.996C174.588 79.8013 174.345 78.8867 173.86 78.252C173.375 77.6173 172.619 77.3 171.592 77.3C170.584 77.3 169.753 77.6547 169.1 78.364C168.465 79.0733 168.148 80.0627 168.148 81.332V88.5H164.564ZM187.787 88.5C186.331 88.5 185.165 88.1453 184.287 87.436C183.41 86.7267 182.971 85.4667 182.971 83.656V77.608H180.591V74.612H182.971L183.391 70.888H186.555V74.612H190.307V77.608H186.555V83.684C186.555 84.356 186.695 84.8227 186.975 85.084C187.274 85.3267 187.778 85.448 188.487 85.448H190.223V88.5H187.787ZM199.777 88.836C198.377 88.836 197.136 88.5373 196.053 87.94C194.97 87.3427 194.121 86.5027 193.505 85.42C192.889 84.3373 192.581 83.0867 192.581 81.668C192.581 80.2307 192.88 78.952 193.477 77.832C194.093 76.712 194.933 75.844 195.997 75.228C197.08 74.5933 198.349 74.276 199.805 74.276C201.168 74.276 202.372 74.5747 203.417 75.172C204.462 75.7693 205.274 76.5907 205.853 77.636C206.45 78.6627 206.749 79.8107 206.749 81.08C206.749 81.2853 206.74 81.5 206.721 81.724C206.721 81.948 206.712 82.1813 206.693 82.424H196.137C196.212 83.5067 196.585 84.356 197.257 84.972C197.948 85.588 198.778 85.896 199.749 85.896C200.477 85.896 201.084 85.7373 201.569 85.42C202.073 85.084 202.446 84.6547 202.689 84.132H206.329C206.068 85.0093 205.629 85.812 205.013 86.54C204.416 87.2493 203.669 87.8093 202.773 88.22C201.896 88.6307 200.897 88.836 199.777 88.836ZM199.805 77.188C198.928 77.188 198.153 77.44 197.481 77.944C196.809 78.4293 196.38 79.176 196.193 80.184H203.109C203.053 79.2693 202.717 78.5413 202.101 78C201.485 77.4587 200.72 77.188 199.805 77.188ZM209.763 88.5V74.612H212.955L213.291 77.216C213.795 76.32 214.477 75.6107 215.335 75.088C216.213 74.5467 217.239 74.276 218.415 74.276V78.056H217.407C216.623 78.056 215.923 78.1773 215.307 78.42C214.691 78.6627 214.206 79.0827 213.851 79.68C213.515 80.2773 213.347 81.108 213.347 82.172V88.5H209.763ZM231.289 88.5L226.193 74.612H229.945L233.473 85.112L237.001 74.612H240.753L235.629 88.5H231.289ZM249.078 88.836C247.678 88.836 246.436 88.5373 245.354 87.94C244.271 87.3427 243.422 86.5027 242.806 85.42C242.19 84.3373 241.882 83.0867 241.882 81.668C241.882 80.2307 242.18 78.952 242.778 77.832C243.394 76.712 244.234 75.844 245.298 75.228C246.38 74.5933 247.65 74.276 249.106 74.276C250.468 74.276 251.672 74.5747 252.718 75.172C253.763 75.7693 254.575 76.5907 255.154 77.636C255.751 78.6627 256.05 79.8107 256.05 81.08C256.05 81.2853 256.04 81.5 256.022 81.724C256.022 81.948 256.012 82.1813 255.994 82.424H245.438C245.512 83.5067 245.886 84.356 246.558 84.972C247.248 85.588 248.079 85.896 249.05 85.896C249.778 85.896 250.384 85.7373 250.87 85.42C251.374 85.084 251.747 84.6547 251.99 84.132H255.63C255.368 85.0093 254.93 85.812 254.314 86.54C253.716 87.2493 252.97 87.8093 252.074 88.22C251.196 88.6307 250.198 88.836 249.078 88.836ZM249.106 77.188C248.228 77.188 247.454 77.44 246.782 77.944C246.11 78.4293 245.68 79.176 245.494 80.184H252.41C252.354 79.2693 252.018 78.5413 251.402 78C250.786 77.4587 250.02 77.188 249.106 77.188ZM259.064 88.5V74.612H262.256L262.592 77.216C263.096 76.32 263.777 75.6107 264.636 75.088C265.513 74.5467 266.54 74.276 267.716 74.276V78.056H266.708C265.924 78.056 265.224 78.1773 264.608 78.42C263.992 78.6627 263.507 79.0827 263.152 79.68C262.816 80.2773 262.648 81.108 262.648 82.172V88.5H259.064ZM272.098 72.456C271.444 72.456 270.903 72.26 270.474 71.868C270.063 71.476 269.858 70.9813 269.858 70.384C269.858 69.7867 270.063 69.3013 270.474 68.928C270.903 68.536 271.444 68.34 272.098 68.34C272.751 68.34 273.283 68.536 273.694 68.928C274.123 69.3013 274.338 69.7867 274.338 70.384C274.338 70.9813 274.123 71.476 273.694 71.868C273.283 72.26 272.751 72.456 272.098 72.456ZM270.306 88.5V74.612H273.89V88.5H270.306ZM278.275 88.5V77.608H276.371V74.612H278.275V72.988C278.275 71.308 278.695 70.1133 279.535 69.404C280.393 68.6947 281.551 68.34 283.007 68.34H284.547V71.392H283.567C282.951 71.392 282.512 71.5133 282.251 71.756C281.989 71.9987 281.859 72.4093 281.859 72.988V74.612H290.819V88.5H287.235V77.608H281.859V88.5H278.275ZM289.055 72.624C288.401 72.624 287.86 72.428 287.431 72.036C287.02 71.644 286.815 71.1493 286.815 70.552C286.815 69.9547 287.02 69.4693 287.431 69.096C287.86 68.704 288.401 68.508 289.055 68.508C289.708 68.508 290.24 68.704 290.651 69.096C291.08 69.4693 291.295 69.9547 291.295 70.552C291.295 71.1493 291.08 71.644 290.651 72.036C290.24 72.428 289.708 72.624 289.055 72.624ZM301.415 88.836C299.996 88.836 298.746 88.528 297.663 87.912C296.58 87.296 295.722 86.4373 295.087 85.336C294.471 84.2347 294.163 82.9747 294.163 81.556C294.163 80.1373 294.471 78.8773 295.087 77.776C295.722 76.6747 296.58 75.816 297.663 75.2C298.746 74.584 299.996 74.276 301.415 74.276C303.188 74.276 304.682 74.7427 305.895 75.676C307.108 76.5907 307.883 77.86 308.219 79.484H304.439C304.252 78.812 303.879 78.2893 303.319 77.916C302.778 77.524 302.134 77.328 301.387 77.328C300.398 77.328 299.558 77.7013 298.867 78.448C298.176 79.1947 297.831 80.2307 297.831 81.556C297.831 82.8813 298.176 83.9173 298.867 84.664C299.558 85.4107 300.398 85.784 301.387 85.784C302.134 85.784 302.778 85.5973 303.319 85.224C303.879 84.8507 304.252 84.3187 304.439 83.628H308.219C307.883 85.196 307.108 86.456 305.895 87.408C304.682 88.36 303.188 88.836 301.415 88.836ZM316.188 88.836C314.993 88.836 314.013 88.6493 313.248 88.276C312.483 87.884 311.913 87.3707 311.54 86.736C311.167 86.1013 310.98 85.4013 310.98 84.636C310.98 83.348 311.484 82.3027 312.492 81.5C313.5 80.6973 315.012 80.296 317.028 80.296H320.556V79.96C320.556 79.008 320.285 78.308 319.744 77.86C319.203 77.412 318.531 77.188 317.728 77.188C317 77.188 316.365 77.3653 315.824 77.72C315.283 78.056 314.947 78.56 314.816 79.232H311.316C311.409 78.224 311.745 77.3467 312.324 76.6C312.921 75.8533 313.687 75.284 314.62 74.892C315.553 74.4813 316.599 74.276 317.756 74.276C319.735 74.276 321.293 74.7707 322.432 75.76C323.571 76.7493 324.14 78.1493 324.14 79.96V88.5H321.088L320.752 86.26C320.341 87.0067 319.763 87.6227 319.016 88.108C318.288 88.5933 317.345 88.836 316.188 88.836ZM317 86.036C318.027 86.036 318.82 85.7 319.38 85.028C319.959 84.356 320.323 83.5253 320.472 82.536H317.42C316.468 82.536 315.787 82.7133 315.376 83.068C314.965 83.404 314.76 83.824 314.76 84.328C314.76 84.8693 314.965 85.2893 315.376 85.588C315.787 85.8867 316.328 86.036 317 86.036ZM333.557 88.5C332.101 88.5 330.934 88.1453 330.057 87.436C329.179 86.7267 328.741 85.4667 328.741 83.656V77.608H326.361V74.612H328.741L329.161 70.888H332.325V74.612H336.077V77.608H332.325V83.684C332.325 84.356 332.465 84.8227 332.745 85.084C333.043 85.3267 333.547 85.448 334.257 85.448H335.993V88.5H333.557ZM341.086 72.456C340.433 72.456 339.891 72.26 339.462 71.868C339.051 71.476 338.846 70.9813 338.846 70.384C338.846 69.7867 339.051 69.3013 339.462 68.928C339.891 68.536 340.433 68.34 341.086 68.34C341.739 68.34 342.271 68.536 342.682 68.928C343.111 69.3013 343.326 69.7867 343.326 70.384C343.326 70.9813 343.111 71.476 342.682 71.868C342.271 72.26 341.739 72.456 341.086 72.456ZM339.294 88.5V74.612H342.878V88.5H339.294ZM353.283 88.836C351.939 88.836 350.725 88.528 349.643 87.912C348.579 87.296 347.729 86.4467 347.095 85.364C346.479 84.2627 346.171 82.9933 346.171 81.556C346.171 80.1187 346.488 78.8587 347.123 77.776C347.757 76.6747 348.607 75.816 349.671 75.2C350.753 74.584 351.967 74.276 353.311 74.276C354.636 74.276 355.831 74.584 356.895 75.2C357.977 75.816 358.827 76.6747 359.443 77.776C360.077 78.8587 360.395 80.1187 360.395 81.556C360.395 82.9933 360.077 84.2627 359.443 85.364C358.827 86.4467 357.977 87.296 356.895 87.912C355.812 88.528 354.608 88.836 353.283 88.836ZM353.283 85.728C354.216 85.728 355.028 85.3827 355.719 84.692C356.409 83.9827 356.755 82.9373 356.755 81.556C356.755 80.1747 356.409 79.1387 355.719 78.448C355.028 77.7387 354.225 77.384 353.311 77.384C352.359 77.384 351.537 77.7387 350.847 78.448C350.175 79.1387 349.839 80.1747 349.839 81.556C349.839 82.9373 350.175 83.9827 350.847 84.692C351.537 85.3827 352.349 85.728 353.283 85.728ZM363.599 88.5V74.612H366.763L367.043 76.964C367.473 76.1427 368.089 75.4893 368.891 75.004C369.713 74.5187 370.674 74.276 371.775 74.276C373.493 74.276 374.827 74.8173 375.779 75.9C376.731 76.9827 377.207 78.5693 377.207 80.66V88.5H373.623V80.996C373.623 79.8013 373.381 78.8867 372.895 78.252C372.41 77.6173 371.654 77.3 370.627 77.3C369.619 77.3 368.789 77.6547 368.135 78.364C367.501 79.0733 367.183 80.0627 367.183 81.332V88.5H363.599ZM394.11 88.836C392.692 88.836 391.441 88.528 390.358 87.912C389.276 87.296 388.417 86.4373 387.782 85.336C387.166 84.2347 386.858 82.9747 386.858 81.556C386.858 80.1373 387.166 78.8773 387.782 77.776C388.417 76.6747 389.276 75.816 390.358 75.2C391.441 74.584 392.692 74.276 394.11 74.276C395.884 74.276 397.377 74.7427 398.59 75.676C399.804 76.5907 400.578 77.86 400.914 79.484H397.134C396.948 78.812 396.574 78.2893 396.014 77.916C395.473 77.524 394.829 77.328 394.082 77.328C393.093 77.328 392.253 77.7013 391.562 78.448C390.872 79.1947 390.526 80.2307 390.526 81.556C390.526 82.8813 390.872 83.9173 391.562 84.664C392.253 85.4107 393.093 85.784 394.082 85.784C394.829 85.784 395.473 85.5973 396.014 85.224C396.574 84.8507 396.948 84.3187 397.134 83.628H400.914C400.578 85.196 399.804 86.456 398.59 87.408C397.377 88.36 395.884 88.836 394.11 88.836ZM410.759 88.836C409.415 88.836 408.202 88.528 407.119 87.912C406.055 87.296 405.206 86.4467 404.571 85.364C403.955 84.2627 403.647 82.9933 403.647 81.556C403.647 80.1187 403.965 78.8587 404.599 77.776C405.234 76.6747 406.083 75.816 407.147 75.2C408.23 74.584 409.443 74.276 410.787 74.276C412.113 74.276 413.307 74.584 414.371 75.2C415.454 75.816 416.303 76.6747 416.919 77.776C417.554 78.8587 417.871 80.1187 417.871 81.556C417.871 82.9933 417.554 84.2627 416.919 85.364C416.303 86.4467 415.454 87.296 414.371 87.912C413.289 88.528 412.085 88.836 410.759 88.836ZM410.759 85.728C411.693 85.728 412.505 85.3827 413.195 84.692C413.886 83.9827 414.231 82.9373 414.231 81.556C414.231 80.1747 413.886 79.1387 413.195 78.448C412.505 77.7387 411.702 77.384 410.787 77.384C409.835 77.384 409.014 77.7387 408.323 78.448C407.651 79.1387 407.315 80.1747 407.315 81.556C407.315 82.9373 407.651 83.9827 408.323 84.692C409.014 85.3827 409.826 85.728 410.759 85.728ZM427.46 88.836C426.153 88.836 424.987 88.5187 423.96 87.884C422.933 87.2493 422.121 86.3813 421.524 85.28C420.927 84.1787 420.628 82.928 420.628 81.528C420.628 80.128 420.927 78.8867 421.524 77.804C422.121 76.7027 422.933 75.844 423.96 75.228C424.987 74.5933 426.153 74.276 427.46 74.276C428.505 74.276 429.42 74.472 430.204 74.864C430.988 75.256 431.623 75.8067 432.108 76.516V68.34H435.692V88.5H432.5L432.108 86.512C431.66 87.128 431.063 87.6693 430.316 88.136C429.588 88.6027 428.636 88.836 427.46 88.836ZM428.216 85.7C429.373 85.7 430.316 85.3173 431.044 84.552C431.791 83.768 432.164 82.7693 432.164 81.556C432.164 80.3427 431.791 79.3533 431.044 78.588C430.316 77.804 429.373 77.412 428.216 77.412C427.077 77.412 426.135 77.7947 425.388 78.56C424.641 79.3253 424.268 80.3147 424.268 81.528C424.268 82.7413 424.641 83.74 425.388 84.524C426.135 85.308 427.077 85.7 428.216 85.7ZM446.089 88.836C444.689 88.836 443.448 88.5373 442.365 87.94C441.283 87.3427 440.433 86.5027 439.817 85.42C439.201 84.3373 438.893 83.0867 438.893 81.668C438.893 80.2307 439.192 78.952 439.789 77.832C440.405 76.712 441.245 75.844 442.309 75.228C443.392 74.5933 444.661 74.276 446.117 74.276C447.48 74.276 448.684 74.5747 449.729 75.172C450.775 75.7693 451.587 76.5907 452.165 77.636C452.763 78.6627 453.061 79.8107 453.061 81.08C453.061 81.2853 453.052 81.5 453.033 81.724C453.033 81.948 453.024 82.1813 453.005 82.424H442.449C442.524 83.5067 442.897 84.356 443.569 84.972C444.26 85.588 445.091 85.896 446.061 85.896C446.789 85.896 447.396 85.7373 447.881 85.42C448.385 85.084 448.759 84.6547 449.001 84.132H452.641C452.38 85.0093 451.941 85.812 451.325 86.54C450.728 87.2493 449.981 87.8093 449.085 88.22C448.208 88.6307 447.209 88.836 446.089 88.836ZM446.117 77.188C445.24 77.188 444.465 77.44 443.793 77.944C443.121 78.4293 442.692 79.176 442.505 80.184H449.421C449.365 79.2693 449.029 78.5413 448.413 78C447.797 77.4587 447.032 77.188 446.117 77.188Z" fill="black"/>
<path d="M90.2412 122.5V109.9H98.0352V111.142H91.7532V115.534H97.4952V116.758H91.7532V121.258H98.0352V122.5H90.2412ZM100.311 122.5V113.572H101.679L101.769 115.174C102.057 114.61 102.471 114.166 103.011 113.842C103.551 113.518 104.163 113.356 104.847 113.356C105.903 113.356 106.743 113.68 107.367 114.328C108.003 114.964 108.321 115.948 108.321 117.28V122.5H106.809V117.442C106.809 115.582 106.041 114.652 104.505 114.652C103.737 114.652 103.095 114.934 102.579 115.498C102.075 116.05 101.823 116.842 101.823 117.874V122.5H100.311ZM114.14 122.5C113.324 122.5 112.682 122.302 112.214 121.906C111.746 121.51 111.512 120.796 111.512 119.764V114.85H109.964V113.572H111.512L111.71 111.43H113.024V113.572H115.652V114.85H113.024V119.764C113.024 120.328 113.138 120.712 113.366 120.916C113.594 121.108 113.996 121.204 114.572 121.204H115.508V122.5H114.14ZM121.341 122.716C120.489 122.716 119.733 122.524 119.073 122.14C118.413 121.744 117.891 121.198 117.507 120.502C117.135 119.806 116.949 118.984 116.949 118.036C116.949 117.1 117.135 116.284 117.507 115.588C117.879 114.88 118.395 114.334 119.055 113.95C119.727 113.554 120.501 113.356 121.377 113.356C122.241 113.356 122.985 113.554 123.609 113.95C124.245 114.334 124.731 114.844 125.067 115.48C125.403 116.116 125.571 116.8 125.571 117.532C125.571 117.664 125.565 117.796 125.553 117.928C125.553 118.06 125.553 118.21 125.553 118.378H118.443C118.479 119.062 118.635 119.632 118.911 120.088C119.199 120.532 119.553 120.868 119.973 121.096C120.405 121.324 120.861 121.438 121.341 121.438C121.965 121.438 122.487 121.294 122.907 121.006C123.327 120.718 123.633 120.328 123.825 119.836H125.319C125.079 120.664 124.617 121.354 123.933 121.906C123.261 122.446 122.397 122.716 121.341 122.716ZM121.341 114.634C120.621 114.634 119.979 114.856 119.415 115.3C118.863 115.732 118.545 116.368 118.461 117.208H124.077C124.041 116.404 123.765 115.774 123.249 115.318C122.733 114.862 122.097 114.634 121.341 114.634ZM127.575 122.5V113.572H128.943L129.069 115.282C129.345 114.694 129.765 114.226 130.329 113.878C130.893 113.53 131.589 113.356 132.417 113.356V114.94H132.003C131.475 114.94 130.989 115.036 130.545 115.228C130.101 115.408 129.747 115.72 129.483 116.164C129.219 116.608 129.087 117.22 129.087 118V122.5H127.575ZM142.406 122.5C141.59 122.5 140.948 122.302 140.48 121.906C140.012 121.51 139.778 120.796 139.778 119.764V114.85H138.23V113.572H139.778L139.976 111.43H141.29V113.572H143.918V114.85H141.29V119.764C141.29 120.328 141.404 120.712 141.632 120.916C141.86 121.108 142.262 121.204 142.838 121.204H143.774V122.5H142.406ZM145.839 122.5V109.54H147.351V115.102C147.651 114.55 148.077 114.124 148.629 113.824C149.181 113.512 149.781 113.356 150.429 113.356C151.461 113.356 152.289 113.68 152.913 114.328C153.537 114.964 153.849 115.948 153.849 117.28V122.5H152.355V117.442C152.355 115.582 151.605 114.652 150.105 114.652C149.325 114.652 148.671 114.934 148.143 115.498C147.615 116.05 147.351 116.842 147.351 117.874V122.5H145.839ZM160.153 122.716C159.301 122.716 158.545 122.524 157.885 122.14C157.225 121.744 156.703 121.198 156.319 120.502C155.947 119.806 155.761 118.984 155.761 118.036C155.761 117.1 155.947 116.284 156.319 115.588C156.691 114.88 157.207 114.334 157.867 113.95C158.539 113.554 159.313 113.356 160.189 113.356C161.053 113.356 161.797 113.554 162.421 113.95C163.057 114.334 163.543 114.844 163.879 115.48C164.215 116.116 164.383 116.8 164.383 117.532C164.383 117.664 164.377 117.796 164.365 117.928C164.365 118.06 164.365 118.21 164.365 118.378H157.255C157.291 119.062 157.447 119.632 157.723 120.088C158.011 120.532 158.365 120.868 158.785 121.096C159.217 121.324 159.673 121.438 160.153 121.438C160.777 121.438 161.299 121.294 161.719 121.006C162.139 120.718 162.445 120.328 162.637 119.836H164.131C163.891 120.664 163.429 121.354 162.745 121.906C162.073 122.446 161.209 122.716 160.153 122.716ZM160.153 114.634C159.433 114.634 158.791 114.856 158.227 115.3C157.675 115.732 157.357 116.368 157.273 117.208H162.889C162.853 116.404 162.577 115.774 162.061 115.318C161.545 114.862 160.909 114.634 160.153 114.634ZM173.725 122.5L170.341 113.572H171.925L174.607 121.042L177.307 113.572H178.855L175.471 122.5H173.725ZM184.095 122.716C183.243 122.716 182.487 122.524 181.827 122.14C181.167 121.744 180.645 121.198 180.261 120.502C179.889 119.806 179.703 118.984 179.703 118.036C179.703 117.1 179.889 116.284 180.261 115.588C180.633 114.88 181.149 114.334 181.809 113.95C182.481 113.554 183.255 113.356 184.131 113.356C184.995 113.356 185.739 113.554 186.363 113.95C186.999 114.334 187.485 114.844 187.821 115.48C188.157 116.116 188.325 116.8 188.325 117.532C188.325 117.664 188.319 117.796 188.307 117.928C188.307 118.06 188.307 118.21 188.307 118.378H181.197C181.233 119.062 181.389 119.632 181.665 120.088C181.953 120.532 182.307 120.868 182.727 121.096C183.159 121.324 183.615 121.438 184.095 121.438C184.719 121.438 185.241 121.294 185.661 121.006C186.081 120.718 186.387 120.328 186.579 119.836H188.073C187.833 120.664 187.371 121.354 186.687 121.906C186.015 122.446 185.151 122.716 184.095 122.716ZM184.095 114.634C183.375 114.634 182.733 114.856 182.169 115.3C181.617 115.732 181.299 116.368 181.215 117.208H186.831C186.795 116.404 186.519 115.774 186.003 115.318C185.487 114.862 184.851 114.634 184.095 114.634ZM190.329 122.5V113.572H191.697L191.823 115.282C192.099 114.694 192.519 114.226 193.083 113.878C193.647 113.53 194.343 113.356 195.171 113.356V114.94H194.757C194.229 114.94 193.743 115.036 193.299 115.228C192.855 115.408 192.501 115.72 192.237 116.164C191.973 116.608 191.841 117.22 191.841 118V122.5H190.329ZM197.786 111.592C197.486 111.592 197.234 111.496 197.03 111.304C196.838 111.1 196.742 110.848 196.742 110.548C196.742 110.26 196.838 110.02 197.03 109.828C197.234 109.636 197.486 109.54 197.786 109.54C198.074 109.54 198.32 109.636 198.524 109.828C198.728 110.02 198.83 110.26 198.83 110.548C198.83 110.848 198.728 111.1 198.524 111.304C198.32 111.496 198.074 111.592 197.786 111.592ZM197.03 122.5V113.572H198.542V122.5H197.03ZM201.661 122.5V114.85H200.311V113.572H201.661V112.024C201.661 111.16 201.877 110.53 202.309 110.134C202.741 109.738 203.371 109.54 204.199 109.54H205.099V110.836H204.433C203.977 110.836 203.653 110.932 203.461 111.124C203.269 111.304 203.173 111.616 203.173 112.06V113.572H208.717V122.5H207.205V114.85H203.173V122.5H201.661ZM207.979 111.862C207.691 111.862 207.445 111.766 207.241 111.574C207.037 111.37 206.935 111.118 206.935 110.818C206.935 110.53 207.037 110.29 207.241 110.098C207.445 109.906 207.691 109.81 207.979 109.81C208.279 109.81 208.525 109.906 208.717 110.098C208.921 110.29 209.023 110.53 209.023 110.818C209.023 111.118 208.921 111.37 208.717 111.574C208.525 111.766 208.279 111.862 207.979 111.862ZM215.492 122.716C214.64 122.716 213.872 122.524 213.188 122.14C212.516 121.744 211.982 121.198 211.586 120.502C211.202 119.794 211.01 118.972 211.01 118.036C211.01 117.1 211.202 116.284 211.586 115.588C211.982 114.88 212.516 114.334 213.188 113.95C213.872 113.554 214.64 113.356 215.492 113.356C216.548 113.356 217.436 113.632 218.156 114.184C218.888 114.736 219.35 115.474 219.542 116.398H217.994C217.874 115.846 217.58 115.42 217.112 115.12C216.644 114.808 216.098 114.652 215.474 114.652C214.97 114.652 214.496 114.778 214.052 115.03C213.608 115.282 213.248 115.66 212.972 116.164C212.696 116.668 212.558 117.292 212.558 118.036C212.558 118.78 212.696 119.404 212.972 119.908C213.248 120.412 213.608 120.796 214.052 121.06C214.496 121.312 214.97 121.438 215.474 121.438C216.098 121.438 216.644 121.288 217.112 120.988C217.58 120.676 217.874 120.238 217.994 119.674H219.542C219.362 120.574 218.906 121.306 218.174 121.87C217.442 122.434 216.548 122.716 215.492 122.716ZM224.623 122.716C223.879 122.716 223.261 122.59 222.769 122.338C222.277 122.086 221.911 121.75 221.671 121.33C221.431 120.91 221.311 120.454 221.311 119.962C221.311 119.05 221.659 118.348 222.355 117.856C223.051 117.364 223.999 117.118 225.199 117.118H227.611V117.01C227.611 116.23 227.407 115.642 226.999 115.246C226.591 114.838 226.045 114.634 225.361 114.634C224.773 114.634 224.263 114.784 223.831 115.084C223.411 115.372 223.147 115.798 223.039 116.362H221.491C221.551 115.714 221.767 115.168 222.139 114.724C222.523 114.28 222.997 113.944 223.561 113.716C224.125 113.476 224.725 113.356 225.361 113.356C226.609 113.356 227.545 113.692 228.169 114.364C228.805 115.024 229.123 115.906 229.123 117.01V122.5H227.773L227.683 120.898C227.431 121.402 227.059 121.834 226.567 122.194C226.087 122.542 225.439 122.716 224.623 122.716ZM224.857 121.438C225.433 121.438 225.925 121.288 226.333 120.988C226.753 120.688 227.071 120.298 227.287 119.818C227.503 119.338 227.611 118.834 227.611 118.306V118.288H225.325C224.437 118.288 223.807 118.444 223.435 118.756C223.075 119.056 222.895 119.434 222.895 119.89C222.895 120.358 223.063 120.736 223.399 121.024C223.747 121.3 224.233 121.438 224.857 121.438ZM234.673 122.5C233.857 122.5 233.215 122.302 232.747 121.906C232.279 121.51 232.045 120.796 232.045 119.764V114.85H230.497V113.572H232.045L232.243 111.43H233.557V113.572H236.185V114.85H233.557V119.764C233.557 120.328 233.671 120.712 233.899 120.916C234.127 121.108 234.529 121.204 235.105 121.204H236.041V122.5H234.673ZM239.024 111.592C238.724 111.592 238.472 111.496 238.268 111.304C238.076 111.1 237.98 110.848 237.98 110.548C237.98 110.26 238.076 110.02 238.268 109.828C238.472 109.636 238.724 109.54 239.024 109.54C239.312 109.54 239.558 109.636 239.762 109.828C239.966 110.02 240.068 110.26 240.068 110.548C240.068 110.848 239.966 111.1 239.762 111.304C239.558 111.496 239.312 111.592 239.024 111.592ZM238.268 122.5V113.572H239.78V122.5H238.268ZM246.481 122.716C245.641 122.716 244.885 122.524 244.213 122.14C243.541 121.756 243.007 121.216 242.611 120.52C242.227 119.812 242.035 118.984 242.035 118.036C242.035 117.088 242.233 116.266 242.629 115.57C243.025 114.862 243.559 114.316 244.231 113.932C244.915 113.548 245.677 113.356 246.517 113.356C247.357 113.356 248.113 113.548 248.785 113.932C249.457 114.316 249.985 114.862 250.369 115.57C250.765 116.266 250.963 117.088 250.963 118.036C250.963 118.984 250.765 119.812 250.369 120.52C249.973 121.216 249.433 121.756 248.749 122.14C248.077 122.524 247.321 122.716 246.481 122.716ZM246.481 121.42C246.997 121.42 247.477 121.294 247.921 121.042C248.365 120.79 248.725 120.412 249.001 119.908C249.277 119.404 249.415 118.78 249.415 118.036C249.415 117.292 249.277 116.668 249.001 116.164C248.737 115.66 248.383 115.282 247.939 115.03C247.495 114.778 247.021 114.652 246.517 114.652C246.001 114.652 245.521 114.778 245.077 115.03C244.633 115.282 244.273 115.66 243.997 116.164C243.721 116.668 243.583 117.292 243.583 118.036C243.583 118.78 243.721 119.404 243.997 119.908C244.273 120.412 244.627 120.79 245.059 121.042C245.503 121.294 245.977 121.42 246.481 121.42ZM253.065 122.5V113.572H254.433L254.523 115.174C254.811 114.61 255.225 114.166 255.765 113.842C256.305 113.518 256.917 113.356 257.601 113.356C258.657 113.356 259.497 113.68 260.121 114.328C260.757 114.964 261.075 115.948 261.075 117.28V122.5H259.563V117.442C259.563 115.582 258.795 114.652 257.259 114.652C256.491 114.652 255.849 114.934 255.333 115.498C254.829 116.05 254.577 116.842 254.577 117.874V122.5H253.065ZM271.55 122.716C270.482 122.716 269.594 122.446 268.886 121.906C268.178 121.366 267.764 120.634 267.644 119.71H269.192C269.288 120.178 269.534 120.586 269.93 120.934C270.338 121.27 270.884 121.438 271.568 121.438C272.204 121.438 272.672 121.306 272.972 121.042C273.272 120.766 273.422 120.442 273.422 120.07C273.422 119.53 273.224 119.17 272.828 118.99C272.444 118.81 271.898 118.648 271.19 118.504C270.71 118.408 270.23 118.27 269.75 118.09C269.27 117.91 268.868 117.658 268.544 117.334C268.22 116.998 268.058 116.56 268.058 116.02C268.058 115.24 268.346 114.604 268.922 114.112C269.51 113.608 270.302 113.356 271.298 113.356C272.246 113.356 273.02 113.596 273.62 114.076C274.232 114.544 274.586 115.216 274.682 116.092H273.188C273.128 115.636 272.93 115.282 272.594 115.03C272.27 114.766 271.832 114.634 271.28 114.634C270.74 114.634 270.32 114.748 270.02 114.976C269.732 115.204 269.588 115.504 269.588 115.876C269.588 116.236 269.774 116.518 270.146 116.722C270.53 116.926 271.046 117.1 271.694 117.244C272.246 117.364 272.768 117.514 273.26 117.694C273.764 117.862 274.172 118.12 274.484 118.468C274.808 118.804 274.97 119.296 274.97 119.944C274.982 120.748 274.676 121.414 274.052 121.942C273.44 122.458 272.606 122.716 271.55 122.716ZM281.144 122.716C280.292 122.716 279.536 122.524 278.876 122.14C278.216 121.744 277.694 121.198 277.31 120.502C276.938 119.806 276.752 118.984 276.752 118.036C276.752 117.1 276.938 116.284 277.31 115.588C277.682 114.88 278.198 114.334 278.858 113.95C279.53 113.554 280.304 113.356 281.18 113.356C282.044 113.356 282.788 113.554 283.412 113.95C284.048 114.334 284.534 114.844 284.87 115.48C285.206 116.116 285.374 116.8 285.374 117.532C285.374 117.664 285.368 117.796 285.356 117.928C285.356 118.06 285.356 118.21 285.356 118.378H278.246C278.282 119.062 278.438 119.632 278.714 120.088C279.002 120.532 279.356 120.868 279.776 121.096C280.208 121.324 280.664 121.438 281.144 121.438C281.768 121.438 282.29 121.294 282.71 121.006C283.13 120.718 283.436 120.328 283.628 119.836H285.122C284.882 120.664 284.42 121.354 283.736 121.906C283.064 122.446 282.2 122.716 281.144 122.716ZM281.144 114.634C280.424 114.634 279.782 114.856 279.218 115.3C278.666 115.732 278.348 116.368 278.264 117.208H283.88C283.844 116.404 283.568 115.774 283.052 115.318C282.536 114.862 281.9 114.634 281.144 114.634ZM287.378 122.5V113.572H288.746L288.836 115.174C289.124 114.61 289.538 114.166 290.078 113.842C290.618 113.518 291.23 113.356 291.914 113.356C292.97 113.356 293.81 113.68 294.434 114.328C295.07 114.964 295.388 115.948 295.388 117.28V122.5H293.876V117.442C293.876 115.582 293.108 114.652 291.572 114.652C290.804 114.652 290.162 114.934 289.646 115.498C289.142 116.05 288.89 116.842 288.89 117.874V122.5H287.378ZM301.207 122.5C300.391 122.5 299.749 122.302 299.281 121.906C298.813 121.51 298.579 120.796 298.579 119.764V114.85H297.031V113.572H298.579L298.777 111.43H300.091V113.572H302.719V114.85H300.091V119.764C300.091 120.328 300.205 120.712 300.433 120.916C300.661 121.108 301.063 121.204 301.639 121.204H302.575V122.5H301.207ZM312.931 122.5C312.115 122.5 311.473 122.302 311.005 121.906C310.537 121.51 310.303 120.796 310.303 119.764V114.85H308.755V113.572H310.303L310.501 111.43H311.815V113.572H314.443V114.85H311.815V119.764C311.815 120.328 311.929 120.712 312.157 120.916C312.385 121.108 312.787 121.204 313.363 121.204H314.299V122.5H312.931ZM320.186 122.716C319.346 122.716 318.59 122.524 317.918 122.14C317.246 121.756 316.712 121.216 316.316 120.52C315.932 119.812 315.74 118.984 315.74 118.036C315.74 117.088 315.938 116.266 316.334 115.57C316.73 114.862 317.264 114.316 317.936 113.932C318.62 113.548 319.382 113.356 320.222 113.356C321.062 113.356 321.818 113.548 322.49 113.932C323.162 114.316 323.69 114.862 324.074 115.57C324.47 116.266 324.668 117.088 324.668 118.036C324.668 118.984 324.47 119.812 324.074 120.52C323.678 121.216 323.138 121.756 322.454 122.14C321.782 122.524 321.026 122.716 320.186 122.716ZM320.186 121.42C320.702 121.42 321.182 121.294 321.626 121.042C322.07 120.79 322.43 120.412 322.706 119.908C322.982 119.404 323.12 118.78 323.12 118.036C323.12 117.292 322.982 116.668 322.706 116.164C322.442 115.66 322.088 115.282 321.644 115.03C321.2 114.778 320.726 114.652 320.222 114.652C319.706 114.652 319.226 114.778 318.782 115.03C318.338 115.282 317.978 115.66 317.702 116.164C317.426 116.668 317.288 117.292 317.288 118.036C317.288 118.78 317.426 119.404 317.702 119.908C317.978 120.412 318.332 120.79 318.764 121.042C319.208 121.294 319.682 121.42 320.186 121.42ZM332.506 126.46L334.72 121.636H334.198L330.652 113.572H332.29L335.242 120.52L338.374 113.572H339.94L334.09 126.46H332.506ZM344.76 122.716C343.92 122.716 343.164 122.524 342.492 122.14C341.82 121.756 341.286 121.216 340.89 120.52C340.506 119.812 340.314 118.984 340.314 118.036C340.314 117.088 340.512 116.266 340.908 115.57C341.304 114.862 341.838 114.316 342.51 113.932C343.194 113.548 343.956 113.356 344.796 113.356C345.636 113.356 346.392 113.548 347.064 113.932C347.736 114.316 348.264 114.862 348.648 115.57C349.044 116.266 349.242 117.088 349.242 118.036C349.242 118.984 349.044 119.812 348.648 120.52C348.252 121.216 347.712 121.756 347.028 122.14C346.356 122.524 345.6 122.716 344.76 122.716ZM344.76 121.42C345.276 121.42 345.756 121.294 346.2 121.042C346.644 120.79 347.004 120.412 347.28 119.908C347.556 119.404 347.694 118.78 347.694 118.036C347.694 117.292 347.556 116.668 347.28 116.164C347.016 115.66 346.662 115.282 346.218 115.03C345.774 114.778 345.3 114.652 344.796 114.652C344.28 114.652 343.8 114.778 343.356 115.03C342.912 115.282 342.552 115.66 342.276 116.164C342 116.668 341.862 117.292 341.862 118.036C341.862 118.78 342 119.404 342.276 119.908C342.552 120.412 342.906 120.79 343.338 121.042C343.782 121.294 344.256 121.42 344.76 121.42ZM354.603 122.716C353.547 122.716 352.707 122.398 352.083 121.762C351.459 121.114 351.147 120.124 351.147 118.792V113.572H352.659V118.63C352.659 120.49 353.421 121.42 354.945 121.42C355.725 121.42 356.367 121.144 356.871 120.592C357.387 120.028 357.645 119.23 357.645 118.198V113.572H359.157V122.5H357.789L357.681 120.898C357.405 121.462 356.991 121.906 356.439 122.23C355.899 122.554 355.287 122.716 354.603 122.716ZM361.645 122.5V113.572H363.013L363.139 115.282C363.415 114.694 363.835 114.226 364.399 113.878C364.963 113.53 365.659 113.356 366.487 113.356V114.94H366.073C365.545 114.94 365.059 115.036 364.615 115.228C364.171 115.408 363.817 115.72 363.553 116.164C363.289 116.608 363.157 117.22 363.157 118V122.5H361.645ZM376.962 122.716C376.11 122.716 375.354 122.524 374.694 122.14C374.034 121.744 373.512 121.198 373.128 120.502C372.756 119.806 372.57 118.984 372.57 118.036C372.57 117.1 372.756 116.284 373.128 115.588C373.5 114.88 374.016 114.334 374.676 113.95C375.348 113.554 376.122 113.356 376.998 113.356C377.862 113.356 378.606 113.554 379.23 113.95C379.866 114.334 380.352 114.844 380.688 115.48C381.024 116.116 381.192 116.8 381.192 117.532C381.192 117.664 381.186 117.796 381.174 117.928C381.174 118.06 381.174 118.21 381.174 118.378H374.064C374.1 119.062 374.256 119.632 374.532 120.088C374.82 120.532 375.174 120.868 375.594 121.096C376.026 121.324 376.482 121.438 376.962 121.438C377.586 121.438 378.108 121.294 378.528 121.006C378.948 120.718 379.254 120.328 379.446 119.836H380.94C380.7 120.664 380.238 121.354 379.554 121.906C378.882 122.446 378.018 122.716 376.962 122.716ZM376.962 114.634C376.242 114.634 375.6 114.856 375.036 115.3C374.484 115.732 374.166 116.368 374.082 117.208H379.698C379.662 116.404 379.386 115.774 378.87 115.318C378.354 114.862 377.718 114.634 376.962 114.634ZM383.196 122.5V113.572H384.564L384.672 114.868C384.96 114.388 385.344 114.016 385.824 113.752C386.304 113.488 386.844 113.356 387.444 113.356C388.152 113.356 388.758 113.5 389.262 113.788C389.778 114.076 390.174 114.514 390.45 115.102C390.762 114.562 391.188 114.136 391.728 113.824C392.28 113.512 392.874 113.356 393.51 113.356C394.578 113.356 395.43 113.68 396.066 114.328C396.702 114.964 397.02 115.948 397.02 117.28V122.5H395.526V117.442C395.526 116.518 395.34 115.822 394.968 115.354C394.596 114.886 394.062 114.652 393.366 114.652C392.646 114.652 392.046 114.934 391.566 115.498C391.098 116.05 390.864 116.842 390.864 117.874V122.5H389.352V117.442C389.352 116.518 389.166 115.822 388.794 115.354C388.422 114.886 387.888 114.652 387.192 114.652C386.484 114.652 385.89 114.934 385.41 115.498C384.942 116.05 384.708 116.842 384.708 117.874V122.5H383.196ZM402.268 122.716C401.524 122.716 400.906 122.59 400.414 122.338C399.922 122.086 399.556 121.75 399.316 121.33C399.076 120.91 398.956 120.454 398.956 119.962C398.956 119.05 399.304 118.348 400 117.856C400.696 117.364 401.644 117.118 402.844 117.118H405.256V117.01C405.256 116.23 405.052 115.642 404.644 115.246C404.236 114.838 403.69 114.634 403.006 114.634C402.418 114.634 401.908 114.784 401.476 115.084C401.056 115.372 400.792 115.798 400.684 116.362H399.136C399.196 115.714 399.412 115.168 399.784 114.724C400.168 114.28 400.642 113.944 401.206 113.716C401.77 113.476 402.37 113.356 403.006 113.356C404.254 113.356 405.19 113.692 405.814 114.364C406.45 115.024 406.768 115.906 406.768 117.01V122.5H405.418L405.328 120.898C405.076 121.402 404.704 121.834 404.212 122.194C403.732 122.542 403.084 122.716 402.268 122.716ZM402.502 121.438C403.078 121.438 403.57 121.288 403.978 120.988C404.398 120.688 404.716 120.298 404.932 119.818C405.148 119.338 405.256 118.834 405.256 118.306V118.288H402.97C402.082 118.288 401.452 118.444 401.08 118.756C400.72 119.056 400.54 119.434 400.54 119.89C400.54 120.358 400.708 120.736 401.044 121.024C401.392 121.3 401.878 121.438 402.502 121.438ZM409.954 111.592C409.654 111.592 409.402 111.496 409.198 111.304C409.006 111.1 408.91 110.848 408.91 110.548C408.91 110.26 409.006 110.02 409.198 109.828C409.402 109.636 409.654 109.54 409.954 109.54C410.242 109.54 410.488 109.636 410.692 109.828C410.896 110.02 410.998 110.26 410.998 110.548C410.998 110.848 410.896 111.1 410.692 111.304C410.488 111.496 410.242 111.592 409.954 111.592ZM409.198 122.5V113.572H410.71V122.5H409.198ZM413.343 122.5V109.54H414.855V122.5H413.343Z" fill="#434345"/>
<rect x="81" y="152" width="47" height="49" rx="11.5" fill="#F5F6FF"/>
<rect x="81" y="152" width="47" height="49" rx="11.5" stroke="#304FFE"/>
<rect x="154" y="152" width="47" height="49" rx="11.5" fill="white"/>
<rect x="154" y="152" width="47" height="49" rx="11.5" stroke="#B9B9B9"/>
<rect x="227" y="152" width="47" height="49" rx="11.5" fill="white"/>
<rect x="227" y="152" width="47" height="49" rx="11.5" stroke="#B9B9B9"/>
<rect x="300" y="152" width="47" height="49" rx="11.5" fill="white"/>
<rect x="300" y="152" width="47" height="49" rx="11.5" stroke="#B9B9B9"/>
<rect x="373" y="152" width="47" height="49" rx="11.5" fill="white"/>
<rect x="373" y="152" width="47" height="49" rx="11.5" stroke="#B9B9B9"/>
<rect x="46" y="225.5" width="410" height="44" rx="4" fill="#0D267D"/>
<path d="M210.469 241.14L214.229 250.692L217.973 241.14H219.493L214.885 252.5H213.573L208.949 241.14H210.469ZM223.402 252.66C222.773 252.66 222.197 252.548 221.674 252.324C221.162 252.089 220.714 251.775 220.33 251.38C219.957 250.975 219.664 250.511 219.45 249.988C219.248 249.465 219.146 248.911 219.146 248.324C219.146 247.535 219.328 246.815 219.69 246.164C220.053 245.513 220.554 244.991 221.194 244.596C221.845 244.201 222.586 244.004 223.418 244.004C224.261 244.004 224.992 244.207 225.61 244.612C226.24 245.007 226.725 245.529 227.066 246.18C227.418 246.82 227.594 247.513 227.594 248.26C227.594 248.367 227.589 248.473 227.578 248.58C227.578 248.676 227.573 248.751 227.562 248.804H220.634C220.677 249.348 220.826 249.833 221.082 250.26C221.349 250.676 221.69 251.007 222.106 251.252C222.522 251.487 222.97 251.604 223.45 251.604C223.962 251.604 224.442 251.476 224.89 251.22C225.349 250.964 225.664 250.628 225.834 250.212L227.05 250.548C226.869 250.953 226.597 251.316 226.234 251.636C225.882 251.956 225.461 252.207 224.97 252.388C224.49 252.569 223.968 252.66 223.402 252.66ZM220.586 247.828H226.282C226.24 247.284 226.085 246.804 225.818 246.388C225.552 245.972 225.21 245.647 224.794 245.412C224.378 245.177 223.92 245.06 223.418 245.06C222.928 245.06 222.474 245.177 222.058 245.412C221.642 245.647 221.301 245.972 221.034 246.388C220.778 246.804 220.629 247.284 220.586 247.828ZM233.575 245.38C232.871 245.391 232.247 245.572 231.703 245.924C231.17 246.265 230.791 246.74 230.567 247.348V252.5H229.159V244.148H230.471V246.084C230.759 245.508 231.138 245.044 231.607 244.692C232.087 244.329 232.589 244.127 233.111 244.084C233.218 244.084 233.309 244.084 233.383 244.084C233.458 244.084 233.522 244.089 233.575 244.1V245.38ZM234.972 252.5V244.148H236.38V252.5H234.972ZM234.972 242.58V240.82H236.38V242.58H234.972ZM239.107 252.5V245.252H237.971V244.148H239.107V243.972C239.107 243.289 239.209 242.703 239.411 242.212C239.625 241.711 239.923 241.327 240.307 241.06C240.691 240.793 241.145 240.66 241.667 240.66C241.998 240.66 242.323 240.708 242.643 240.804C242.963 240.889 243.251 241.012 243.507 241.172L243.155 242.212C243.006 242.105 242.819 242.02 242.595 241.956C242.382 241.892 242.169 241.86 241.955 241.86C241.497 241.86 241.139 242.041 240.883 242.404C240.638 242.756 240.515 243.263 240.515 243.924V244.148H242.739V245.252H240.515V252.5H239.107ZM244.528 254.772C244.666 254.783 244.805 254.793 244.944 254.804C245.082 254.825 245.189 254.836 245.264 254.836C245.434 254.836 245.584 254.777 245.712 254.66C245.84 254.543 245.978 254.313 246.128 253.972C246.288 253.641 246.49 253.151 246.736 252.5L243.2 244.148H244.688L247.504 251.076L250.048 244.148H251.44L247.376 254.692C247.28 254.937 247.136 255.167 246.944 255.38C246.762 255.604 246.528 255.78 246.24 255.908C245.952 256.036 245.605 256.1 245.2 256.1C245.104 256.1 245.002 256.095 244.896 256.084C244.8 256.073 244.677 256.052 244.528 256.02V254.772ZM260.168 252.66C259.539 252.66 258.963 252.548 258.44 252.324C257.928 252.089 257.48 251.769 257.096 251.364C256.723 250.959 256.429 250.495 256.216 249.972C256.013 249.449 255.912 248.895 255.912 248.308C255.912 247.519 256.088 246.799 256.44 246.148C256.792 245.497 257.288 244.98 257.928 244.596C258.568 244.201 259.309 244.004 260.152 244.004C260.973 244.004 261.688 244.191 262.296 244.564C262.915 244.927 263.373 245.417 263.672 246.036L262.296 246.468C262.083 246.073 261.784 245.769 261.4 245.556C261.016 245.332 260.589 245.22 260.12 245.22C259.608 245.22 259.139 245.353 258.712 245.62C258.296 245.887 257.965 246.255 257.72 246.724C257.475 247.183 257.352 247.711 257.352 248.308C257.352 248.895 257.475 249.428 257.72 249.908C257.976 250.377 258.312 250.751 258.728 251.028C259.155 251.305 259.624 251.444 260.136 251.444C260.467 251.444 260.781 251.385 261.08 251.268C261.389 251.151 261.656 250.996 261.88 250.804C262.115 250.601 262.275 250.383 262.36 250.148L263.736 250.564C263.565 250.969 263.304 251.332 262.952 251.652C262.611 251.961 262.2 252.207 261.72 252.388C261.251 252.569 260.733 252.66 260.168 252.66ZM268.901 252.66C268.272 252.66 267.701 252.548 267.189 252.324C266.677 252.089 266.235 251.775 265.861 251.38C265.488 250.975 265.2 250.511 264.997 249.988C264.795 249.465 264.693 248.916 264.693 248.34C264.693 247.753 264.795 247.199 264.997 246.676C265.2 246.153 265.488 245.695 265.861 245.3C266.235 244.895 266.677 244.58 267.189 244.356C267.712 244.121 268.283 244.004 268.901 244.004C269.531 244.004 270.101 244.121 270.613 244.356C271.125 244.58 271.568 244.895 271.941 245.3C272.325 245.695 272.619 246.153 272.821 246.676C273.024 247.199 273.125 247.753 273.125 248.34C273.125 248.916 273.024 249.465 272.821 249.988C272.619 250.511 272.331 250.975 271.957 251.38C271.584 251.775 271.136 252.089 270.613 252.324C270.101 252.548 269.531 252.66 268.901 252.66ZM266.133 248.356C266.133 248.932 266.256 249.455 266.501 249.924C266.757 250.393 267.093 250.767 267.509 251.044C267.925 251.311 268.389 251.444 268.901 251.444C269.413 251.444 269.877 251.305 270.293 251.028C270.72 250.751 271.056 250.377 271.301 249.908C271.557 249.428 271.685 248.9 271.685 248.324C271.685 247.748 271.557 247.225 271.301 246.756C271.056 246.287 270.72 245.913 270.293 245.636C269.877 245.359 269.413 245.22 268.901 245.22C268.389 245.22 267.925 245.364 267.509 245.652C267.093 245.929 266.757 246.303 266.501 246.772C266.256 247.241 266.133 247.769 266.133 248.356ZM274.287 248.34C274.287 247.551 274.447 246.831 274.767 246.18C275.098 245.519 275.546 244.991 276.111 244.596C276.687 244.201 277.343 244.004 278.079 244.004C278.751 244.004 279.354 244.18 279.887 244.532C280.421 244.884 280.837 245.311 281.135 245.812V240.82H282.543V250.9C282.543 251.071 282.575 251.199 282.639 251.284C282.714 251.359 282.831 251.401 282.991 251.412V252.5C282.725 252.543 282.517 252.564 282.367 252.564C282.09 252.564 281.845 252.468 281.631 252.276C281.429 252.084 281.327 251.871 281.327 251.636V250.932C280.997 251.465 280.554 251.887 279.999 252.196C279.445 252.505 278.869 252.66 278.271 252.66C277.695 252.66 277.162 252.548 276.671 252.324C276.191 252.089 275.77 251.769 275.407 251.364C275.055 250.959 274.778 250.5 274.575 249.988C274.383 249.465 274.287 248.916 274.287 248.34ZM281.135 249.572V247.172C281.007 246.809 280.799 246.484 280.511 246.196C280.223 245.897 279.898 245.663 279.535 245.492C279.183 245.311 278.831 245.22 278.479 245.22C278.063 245.22 277.685 245.311 277.343 245.492C277.013 245.663 276.725 245.897 276.479 246.196C276.245 246.484 276.063 246.815 275.935 247.188C275.807 247.561 275.743 247.951 275.743 248.356C275.743 248.772 275.813 249.167 275.951 249.54C276.101 249.913 276.303 250.244 276.559 250.532C276.826 250.82 277.13 251.044 277.471 251.204C277.823 251.364 278.202 251.444 278.607 251.444C278.863 251.444 279.125 251.396 279.391 251.3C279.669 251.204 279.93 251.071 280.175 250.9C280.421 250.729 280.629 250.532 280.799 250.308C280.97 250.073 281.082 249.828 281.135 249.572ZM288.59 252.66C287.96 252.66 287.384 252.548 286.862 252.324C286.35 252.089 285.902 251.775 285.518 251.38C285.144 250.975 284.851 250.511 284.638 249.988C284.435 249.465 284.334 248.911 284.334 248.324C284.334 247.535 284.515 246.815 284.878 246.164C285.24 245.513 285.742 244.991 286.382 244.596C287.032 244.201 287.774 244.004 288.606 244.004C289.448 244.004 290.179 244.207 290.798 244.612C291.427 245.007 291.912 245.529 292.254 246.18C292.606 246.82 292.782 247.513 292.782 248.26C292.782 248.367 292.776 248.473 292.766 248.58C292.766 248.676 292.76 248.751 292.75 248.804H285.822C285.864 249.348 286.014 249.833 286.27 250.26C286.536 250.676 286.878 251.007 287.294 251.252C287.71 251.487 288.158 251.604 288.638 251.604C289.15 251.604 289.63 251.476 290.078 251.22C290.536 250.964 290.851 250.628 291.022 250.212L292.238 250.548C292.056 250.953 291.784 251.316 291.422 251.636C291.07 251.956 290.648 252.207 290.158 252.388C289.678 252.569 289.155 252.66 288.59 252.66ZM285.774 247.828H291.47C291.427 247.284 291.272 246.804 291.006 246.388C290.739 245.972 290.398 245.647 289.982 245.412C289.566 245.177 289.107 245.06 288.606 245.06C288.115 245.06 287.662 245.177 287.246 245.412C286.83 245.647 286.488 245.972 286.222 246.388C285.966 246.804 285.816 247.284 285.774 247.828Z" fill="white"/>
</svg>
