<svg width="38" height="38" viewBox="0 0 38 38" fill="none" xmlns="http://www.w3.org/2000/svg">
<path d="M19.3707 17.6874C21.4188 17.6874 23.3831 18.501 24.8313 19.9493C26.2795 21.3975 27.0932 23.3617 27.0932 25.4099V34.6768H24.0042V25.4099C24.0042 24.228 23.5527 23.0908 22.7419 22.2309C21.9311 21.371 20.8224 20.8535 19.6425 20.7841L19.3707 20.7764C18.1888 20.7763 17.0516 21.2279 16.1917 22.0387C15.3318 22.8495 14.8143 23.9582 14.7449 25.138L14.7372 25.4099V34.6768H11.6482V25.4099C11.6482 23.3617 12.4619 21.3975 13.9101 19.9493C15.3583 18.501 17.3226 17.6874 19.3707 17.6874ZM9.3315 22.3209C9.76242 22.3209 10.181 22.3719 10.5825 22.4661C10.3185 23.2522 10.1621 24.0705 10.1176 24.8986L10.1037 25.4099V25.5427C9.92621 25.4792 9.74155 25.4377 9.55391 25.4191L9.3315 25.4099C8.75559 25.4099 8.20033 25.6244 7.77401 26.0116C7.34769 26.3988 7.08086 26.931 7.02558 27.5042L7.01477 27.7266V34.6768H3.92578V27.7266C3.92578 26.2929 4.49531 24.918 5.50908 23.9042C6.52285 22.8904 7.89782 22.3209 9.3315 22.3209ZM29.4099 22.3209C30.8436 22.3209 32.2186 22.8904 33.2323 23.9042C34.2461 24.918 34.8156 26.2929 34.8156 27.7266V34.6768H31.7266V27.7266C31.7266 27.1507 31.5121 26.5954 31.1249 26.1691C30.7377 25.7428 30.2056 25.476 29.6323 25.4207L29.4099 25.4099C29.1396 25.4099 28.8801 25.4562 28.6377 25.5412V25.4099C28.6377 24.3812 28.4708 23.3928 28.1604 22.4692C28.5604 22.3719 28.979 22.3209 29.4099 22.3209ZM9.3315 13.0539C10.3556 13.0539 11.3377 13.4607 12.0618 14.1849C12.7859 14.909 13.1927 15.8911 13.1927 16.9152C13.1927 17.9392 12.7859 18.9213 12.0618 19.6455C11.3377 20.3696 10.3556 20.7764 9.3315 20.7764C8.30744 20.7764 7.32532 20.3696 6.6012 19.6455C5.87708 18.9213 5.47027 17.9392 5.47027 16.9152C5.47027 15.8911 5.87708 14.909 6.6012 14.1849C7.32532 13.4607 8.30744 13.0539 9.3315 13.0539ZM29.4099 13.0539C30.434 13.0539 31.4161 13.4607 32.1402 14.1849C32.8643 14.909 33.2711 15.8911 33.2711 16.9152C33.2711 17.9392 32.8643 18.9213 32.1402 19.6455C31.4161 20.3696 30.434 20.7764 29.4099 20.7764C28.3858 20.7764 27.4037 20.3696 26.6796 19.6455C25.9555 18.9213 25.5487 17.9392 25.5487 16.9152C25.5487 15.8911 25.9555 14.909 26.6796 14.1849C27.4037 13.4607 28.3858 13.0539 29.4099 13.0539ZM9.3315 16.1429C9.12669 16.1429 8.93027 16.2243 8.78544 16.3691C8.64062 16.5139 8.55926 16.7104 8.55926 16.9152C8.55926 17.12 8.64062 17.3164 8.78544 17.4612C8.93027 17.6061 9.12669 17.6874 9.3315 17.6874C9.53632 17.6874 9.73274 17.6061 9.87756 17.4612C10.0224 17.3164 10.1037 17.12 10.1037 16.9152C10.1037 16.7104 10.0224 16.5139 9.87756 16.3691C9.73274 16.2243 9.53632 16.1429 9.3315 16.1429ZM29.4099 16.1429C29.2051 16.1429 29.0087 16.2243 28.8638 16.3691C28.719 16.5139 28.6377 16.7104 28.6377 16.9152C28.6377 17.12 28.719 17.3164 28.8638 17.4612C29.0087 17.6061 29.2051 17.6874 29.4099 17.6874C29.6147 17.6874 29.8111 17.6061 29.956 17.4612C30.1008 17.3164 30.1821 17.12 30.1821 16.9152C30.1821 16.7104 30.1008 16.5139 29.956 16.3691C29.8111 16.2243 29.6147 16.1429 29.4099 16.1429ZM19.3707 3.78699C21.0092 3.78699 22.5806 4.43788 23.7392 5.59647C24.8978 6.75507 25.5487 8.32646 25.5487 9.96495C25.5487 11.6035 24.8978 13.1748 23.7392 14.3334C22.5806 15.492 21.0092 16.1429 19.3707 16.1429C17.7322 16.1429 16.1608 15.492 15.0022 14.3334C13.8436 13.1748 13.1927 11.6035 13.1927 9.96495C13.1927 8.32646 13.8436 6.75507 15.0022 5.59647C16.1608 4.43788 17.7322 3.78699 19.3707 3.78699ZM19.3707 6.87597C18.5515 6.87597 17.7658 7.20142 17.1865 7.78071C16.6072 8.36001 16.2817 9.14571 16.2817 9.96495C16.2817 10.7842 16.6072 11.5699 17.1865 12.1492C17.7658 12.7285 18.5515 13.0539 19.3707 13.0539C20.1899 13.0539 20.9756 12.7285 21.5549 12.1492C22.1342 11.5699 22.4597 10.7842 22.4597 9.96495C22.4597 9.14571 22.1342 8.36001 21.5549 7.78071C20.9756 7.20142 20.1899 6.87597 19.3707 6.87597Z" fill="white"/>
</svg>
