<svg width="25" height="25" viewBox="0 0 25 25" fill="none" xmlns="http://www.w3.org/2000/svg">
<path d="M18.6652 14.917C18.3954 15.1784 18.2714 15.5566 18.3329 15.9274L19.2589 21.0524C19.337 21.4868 19.1537 21.9264 18.7902 22.1774C18.4339 22.4378 17.96 22.4691 17.5714 22.2607L12.9579 19.8545C12.7975 19.7691 12.6193 19.7232 12.437 19.718H12.1548C12.0568 19.7326 11.961 19.7639 11.8735 19.8118L7.25892 22.2295C7.0308 22.3441 6.77246 22.3847 6.51934 22.3441C5.90267 22.2274 5.49121 21.6399 5.59225 21.0201L6.51934 15.8951C6.5808 15.5212 6.45684 15.141 6.18705 14.8753L2.42559 11.2295C2.111 10.9243 2.00163 10.466 2.14538 10.0524C2.28496 9.63991 2.64121 9.33887 3.07142 9.27116L8.2485 8.52012C8.64225 8.47949 8.98809 8.23991 9.16517 7.88574L11.4464 3.20866C11.5006 3.10449 11.5704 3.00866 11.6548 2.92741L11.7485 2.85449C11.7975 2.80033 11.8537 2.75553 11.9162 2.71908L12.0298 2.67741L12.2068 2.60449H12.6454C13.037 2.64512 13.3818 2.87949 13.562 3.22949L15.8735 7.88574C16.0402 8.22637 16.3641 8.46283 16.7381 8.52012L21.9152 9.27116C22.3527 9.33366 22.7183 9.63574 22.8631 10.0524C22.9995 10.4701 22.8818 10.9284 22.561 11.2295L18.6652 14.917Z" fill="white"/>
</svg>
